<svg width="587" height="479" viewBox="0 0 587 479" fill="none" xmlns="http://www.w3.org/2000/svg">
<path fill-rule="evenodd" clip-rule="evenodd" d="M112.89 417.849L110.522 413.453L109.691 413.9L112.059 418.296L106.761 416.708L106.49 417.612L112.88 419.527L113.332 419.662L113.467 419.21L115.382 412.82L114.478 412.55L112.89 417.849Z" fill="#ACAEFF"/>
<rect x="229.619" y="457.164" width="20.7546" height="20.7546" rx="5.66035" transform="rotate(-24.8293 229.619 457.164)" fill="#ACAEFF"/>
<rect x="551.231" y="228.263" width="20.7546" height="20.7546" rx="5.66035" transform="rotate(40.5713 551.231 228.263)" fill="#03B962"/>
<rect y="48.6797" width="37.9387" height="37.9387" rx="5.66035" transform="rotate(-54.2568 0 48.6797)" fill="#FFACAC"/>
<path fill-rule="evenodd" clip-rule="evenodd" d="M105.66 106.566C105.66 107.608 104.815 108.453 103.773 108.453C102.731 108.453 101.887 107.608 101.887 106.566C101.887 105.524 102.731 104.679 103.773 104.679C104.815 104.679 105.66 105.524 105.66 106.566ZM84.9053 108.453C85.9474 108.453 86.7921 107.608 86.7921 106.566C86.7921 105.524 85.9474 104.679 84.9053 104.679C83.8633 104.679 83.0186 105.524 83.0186 106.566C83.0186 107.608 83.8633 108.453 84.9053 108.453ZM94.3399 108.453C95.3819 108.453 96.2267 107.608 96.2267 106.566C96.2267 105.524 95.3819 104.679 94.3399 104.679C93.2979 104.679 92.4531 105.524 92.4531 106.566C92.4531 107.608 93.2979 108.453 94.3399 108.453ZM113.207 108.453C114.249 108.453 115.094 107.608 115.094 106.566C115.094 105.524 114.249 104.679 113.207 104.679C112.165 104.679 111.321 105.524 111.321 106.566C111.321 107.608 112.165 108.453 113.207 108.453ZM124.528 106.566C124.528 107.608 123.684 108.453 122.642 108.453C121.6 108.453 120.755 107.608 120.755 106.566C120.755 105.524 121.6 104.679 122.642 104.679C123.684 104.679 124.528 105.524 124.528 106.566ZM132.075 108.453C133.117 108.453 133.962 107.608 133.962 106.566C133.962 105.524 133.117 104.679 132.075 104.679C131.033 104.679 130.188 105.524 130.188 106.566C130.188 107.608 131.033 108.453 132.075 108.453ZM143.396 106.566C143.396 107.608 142.551 108.453 141.509 108.453C140.467 108.453 139.622 107.608 139.622 106.566C139.622 105.524 140.467 104.679 141.509 104.679C142.551 104.679 143.396 105.524 143.396 106.566ZM84.9056 117.886C85.9476 117.886 86.7923 117.042 86.7923 116C86.7923 114.958 85.9476 114.113 84.9056 114.113C83.8635 114.113 83.0188 114.958 83.0188 116C83.0188 117.042 83.8635 117.886 84.9056 117.886ZM94.3401 117.886C95.3822 117.886 96.2269 117.042 96.2269 116C96.2269 114.958 95.3822 114.113 94.3401 114.113C93.2981 114.113 92.4534 114.958 92.4534 116C92.4534 117.042 93.2981 117.886 94.3401 117.886ZM105.66 116C105.66 117.042 104.816 117.886 103.774 117.886C102.732 117.886 101.887 117.042 101.887 116C101.887 114.958 102.732 114.113 103.774 114.113C104.816 114.113 105.66 114.958 105.66 116ZM113.208 117.886C114.25 117.886 115.094 117.042 115.094 116C115.094 114.958 114.25 114.113 113.208 114.113C112.165 114.113 111.321 114.958 111.321 116C111.321 117.042 112.165 117.886 113.208 117.886ZM124.529 116C124.529 117.042 123.684 117.886 122.642 117.886C121.6 117.886 120.755 117.042 120.755 116C120.755 114.958 121.6 114.113 122.642 114.113C123.684 114.113 124.529 114.958 124.529 116ZM132.075 117.886C133.117 117.886 133.962 117.042 133.962 116C133.962 114.958 133.117 114.113 132.075 114.113C131.033 114.113 130.189 114.958 130.189 116C130.189 117.042 131.033 117.886 132.075 117.886ZM143.396 116C143.396 117.042 142.551 117.886 141.509 117.886C140.467 117.886 139.622 117.042 139.622 116C139.622 114.958 140.467 114.113 141.509 114.113C142.551 114.113 143.396 114.958 143.396 116ZM103.774 127.32C104.816 127.32 105.66 126.476 105.66 125.434C105.66 124.392 104.816 123.547 103.774 123.547C102.732 123.547 101.887 124.392 101.887 125.434C101.887 126.476 102.732 127.32 103.774 127.32ZM86.7923 125.434C86.7923 126.476 85.9476 127.32 84.9056 127.32C83.8635 127.32 83.0188 126.476 83.0188 125.434C83.0188 124.392 83.8635 123.547 84.9056 123.547C85.9476 123.547 86.7923 124.392 86.7923 125.434ZM96.2269 125.434C96.2269 126.476 95.3822 127.32 94.3401 127.32C93.2981 127.32 92.4534 126.476 92.4534 125.434C92.4534 124.392 93.2981 123.547 94.3401 123.547C95.3822 123.547 96.2269 124.392 96.2269 125.434ZM115.094 125.434C115.094 126.476 114.25 127.32 113.208 127.32C112.165 127.32 111.321 126.476 111.321 125.434C111.321 124.392 112.165 123.547 113.208 123.547C114.25 123.547 115.094 124.392 115.094 125.434ZM122.642 127.32C123.684 127.32 124.529 126.476 124.529 125.434C124.529 124.392 123.684 123.547 122.642 123.547C121.6 123.547 120.755 124.392 120.755 125.434C120.755 126.476 121.6 127.32 122.642 127.32ZM133.962 125.434C133.962 126.476 133.117 127.32 132.075 127.32C131.033 127.32 130.189 126.476 130.189 125.434C130.189 124.392 131.033 123.547 132.075 123.547C133.117 123.547 133.962 124.392 133.962 125.434ZM141.509 127.32C142.551 127.32 143.396 126.476 143.396 125.434C143.396 124.392 142.551 123.547 141.509 123.547C140.467 123.547 139.622 124.392 139.622 125.434C139.622 126.476 140.467 127.32 141.509 127.32ZM105.66 134.867C105.66 135.91 104.816 136.754 103.774 136.754C102.732 136.754 101.887 135.91 101.887 134.867C101.887 133.825 102.732 132.981 103.774 132.981C104.816 132.981 105.66 133.825 105.66 134.867ZM84.9056 136.754C85.9476 136.754 86.7923 135.91 86.7923 134.867C86.7923 133.825 85.9476 132.981 84.9056 132.981C83.8635 132.981 83.0188 133.825 83.0188 134.867C83.0188 135.91 83.8635 136.754 84.9056 136.754ZM94.3401 136.754C95.3822 136.754 96.2269 135.91 96.2269 134.867C96.2269 133.825 95.3822 132.981 94.3401 132.981C93.2981 132.981 92.4534 133.825 92.4534 134.867C92.4534 135.91 93.2981 136.754 94.3401 136.754ZM113.208 136.754C114.25 136.754 115.094 135.91 115.094 134.867C115.094 133.825 114.25 132.981 113.208 132.981C112.165 132.981 111.321 133.825 111.321 134.867C111.321 135.91 112.165 136.754 113.208 136.754ZM124.529 134.867C124.529 135.91 123.684 136.754 122.642 136.754C121.6 136.754 120.755 135.91 120.755 134.867C120.755 133.825 121.6 132.981 122.642 132.981C123.684 132.981 124.529 133.825 124.529 134.867ZM132.075 136.754C133.117 136.754 133.962 135.91 133.962 134.867C133.962 133.825 133.117 132.981 132.075 132.981C131.033 132.981 130.189 133.825 130.189 134.867C130.189 135.91 131.033 136.754 132.075 136.754ZM143.396 134.867C143.396 135.91 142.551 136.754 141.509 136.754C140.467 136.754 139.622 135.91 139.622 134.867C139.622 133.825 140.467 132.981 141.509 132.981C142.551 132.981 143.396 133.825 143.396 134.867ZM86.7923 144.301C86.7923 145.343 85.9476 146.188 84.9056 146.188C83.8635 146.188 83.0188 145.343 83.0188 144.301C83.0188 143.259 83.8635 142.415 84.9056 142.415C85.9476 142.415 86.7923 143.259 86.7923 144.301ZM96.2269 144.301C96.2269 145.343 95.3822 146.188 94.3401 146.188C93.2981 146.188 92.4534 145.343 92.4534 144.301C92.4534 143.259 93.2981 142.415 94.3401 142.415C95.3822 142.415 96.2269 143.259 96.2269 144.301ZM103.774 146.188C104.816 146.188 105.66 145.343 105.66 144.301C105.66 143.259 104.816 142.415 103.774 142.415C102.732 142.415 101.887 143.259 101.887 144.301C101.887 145.343 102.732 146.188 103.774 146.188ZM115.094 144.301C115.094 145.343 114.25 146.188 113.208 146.188C112.165 146.188 111.321 145.343 111.321 144.301C111.321 143.259 112.165 142.415 113.208 142.415C114.25 142.415 115.094 143.259 115.094 144.301ZM122.642 146.188C123.684 146.188 124.529 145.343 124.529 144.301C124.529 143.259 123.684 142.415 122.642 142.415C121.6 142.415 120.755 143.259 120.755 144.301C120.755 145.343 121.6 146.188 122.642 146.188ZM133.962 144.301C133.962 145.343 133.117 146.188 132.075 146.188C131.033 146.188 130.189 145.343 130.189 144.301C130.189 143.259 131.033 142.415 132.075 142.415C133.117 142.415 133.962 143.259 133.962 144.301ZM141.509 146.188C142.551 146.188 143.396 145.343 143.396 144.301C143.396 143.259 142.551 142.415 141.509 142.415C140.467 142.415 139.622 143.259 139.622 144.301C139.622 145.343 140.467 146.188 141.509 146.188ZM105.66 153.735C105.66 154.777 104.816 155.622 103.774 155.622C102.732 155.622 101.887 154.777 101.887 153.735C101.887 152.693 102.732 151.849 103.774 151.849C104.816 151.849 105.66 152.693 105.66 153.735ZM84.9056 155.622C85.9476 155.622 86.7923 154.777 86.7923 153.735C86.7923 152.693 85.9476 151.849 84.9056 151.849C83.8635 151.849 83.0188 152.693 83.0188 153.735C83.0188 154.777 83.8635 155.622 84.9056 155.622ZM94.3401 155.622C95.3822 155.622 96.2269 154.777 96.2269 153.735C96.2269 152.693 95.3822 151.849 94.3401 151.849C93.2981 151.849 92.4534 152.693 92.4534 153.735C92.4534 154.777 93.2981 155.622 94.3401 155.622ZM113.208 155.622C114.25 155.622 115.094 154.777 115.094 153.735C115.094 152.693 114.25 151.849 113.208 151.849C112.165 151.849 111.321 152.693 111.321 153.735C111.321 154.777 112.165 155.622 113.208 155.622ZM124.529 153.735C124.529 154.777 123.684 155.622 122.642 155.622C121.6 155.622 120.755 154.777 120.755 153.735C120.755 152.693 121.6 151.849 122.642 151.849C123.684 151.849 124.529 152.693 124.529 153.735ZM132.075 155.622C133.117 155.622 133.962 154.777 133.962 153.735C133.962 152.693 133.117 151.849 132.075 151.849C131.033 151.849 130.189 152.693 130.189 153.735C130.189 154.777 131.033 155.622 132.075 155.622ZM143.396 153.735C143.396 154.777 142.551 155.622 141.509 155.622C140.467 155.622 139.622 154.777 139.622 153.735C139.622 152.693 140.467 151.849 141.509 151.849C142.551 151.849 143.396 152.693 143.396 153.735ZM86.7923 163.169C86.7923 164.211 85.9476 165.056 84.9056 165.056C83.8635 165.056 83.0188 164.211 83.0188 163.169C83.0188 162.127 83.8635 161.282 84.9056 161.282C85.9476 161.282 86.7923 162.127 86.7923 163.169ZM96.2269 163.169C96.2269 164.211 95.3822 165.056 94.3401 165.056C93.2981 165.056 92.4534 164.211 92.4534 163.169C92.4534 162.127 93.2981 161.282 94.3401 161.282C95.3822 161.282 96.2269 162.127 96.2269 163.169ZM103.774 165.056C104.816 165.056 105.66 164.211 105.66 163.169C105.66 162.127 104.816 161.282 103.774 161.282C102.732 161.282 101.887 162.127 101.887 163.169C101.887 164.211 102.732 165.056 103.774 165.056ZM115.094 163.169C115.094 164.211 114.25 165.056 113.208 165.056C112.165 165.056 111.321 164.211 111.321 163.169C111.321 162.127 112.165 161.282 113.208 161.282C114.25 161.282 115.094 162.127 115.094 163.169ZM122.642 165.056C123.684 165.056 124.529 164.211 124.529 163.169C124.529 162.127 123.684 161.282 122.642 161.282C121.6 161.282 120.755 162.127 120.755 163.169C120.755 164.211 121.6 165.056 122.642 165.056ZM133.962 163.169C133.962 164.211 133.117 165.056 132.075 165.056C131.033 165.056 130.189 164.211 130.189 163.169C130.189 162.127 131.033 161.282 132.075 161.282C133.117 161.282 133.962 162.127 133.962 163.169ZM141.509 165.056C142.551 165.056 143.396 164.211 143.396 163.169C143.396 162.127 142.551 161.282 141.509 161.282C140.467 161.282 139.622 162.127 139.622 163.169C139.622 164.211 140.467 165.056 141.509 165.056ZM84.9056 174.49C85.9476 174.49 86.7923 173.645 86.7923 172.603C86.7923 171.561 85.9476 170.716 84.9056 170.716C83.8635 170.716 83.0188 171.561 83.0188 172.603C83.0188 173.645 83.8635 174.49 84.9056 174.49ZM94.3401 174.49C95.3822 174.49 96.2269 173.645 96.2269 172.603C96.2269 171.561 95.3822 170.716 94.3401 170.716C93.2981 170.716 92.4534 171.561 92.4534 172.603C92.4534 173.645 93.2981 174.49 94.3401 174.49ZM105.66 172.603C105.66 173.645 104.816 174.49 103.774 174.49C102.732 174.49 101.887 173.645 101.887 172.603C101.887 171.561 102.732 170.716 103.774 170.716C104.816 170.716 105.66 171.561 105.66 172.603ZM113.208 174.49C114.25 174.49 115.094 173.645 115.094 172.603C115.094 171.561 114.25 170.716 113.208 170.716C112.165 170.716 111.321 171.561 111.321 172.603C111.321 173.645 112.165 174.49 113.208 174.49ZM124.529 172.603C124.529 173.645 123.684 174.49 122.642 174.49C121.6 174.49 120.755 173.645 120.755 172.603C120.755 171.561 121.6 170.716 122.642 170.716C123.684 170.716 124.529 171.561 124.529 172.603ZM132.075 174.49C133.117 174.49 133.962 173.645 133.962 172.603C133.962 171.561 133.117 170.716 132.075 170.716C131.033 170.716 130.189 171.561 130.189 172.603C130.189 173.645 131.033 174.49 132.075 174.49ZM143.396 172.603C143.396 173.645 142.551 174.49 141.509 174.49C140.467 174.49 139.622 173.645 139.622 172.603C139.622 171.561 140.467 170.716 141.509 170.716C142.551 170.716 143.396 171.561 143.396 172.603ZM86.7923 182.037C86.7923 183.079 85.9476 183.924 84.9056 183.924C83.8635 183.924 83.0188 183.079 83.0188 182.037C83.0188 180.995 83.8635 180.15 84.9056 180.15C85.9476 180.15 86.7923 180.995 86.7923 182.037ZM96.2269 182.037C96.2269 183.079 95.3822 183.924 94.3401 183.924C93.2981 183.924 92.4534 183.079 92.4534 182.037C92.4534 180.995 93.2981 180.15 94.3401 180.15C95.3822 180.15 96.2269 180.995 96.2269 182.037ZM103.774 183.924C104.816 183.924 105.66 183.079 105.66 182.037C105.66 180.995 104.816 180.15 103.774 180.15C102.732 180.15 101.887 180.995 101.887 182.037C101.887 183.079 102.732 183.924 103.774 183.924ZM115.094 182.037C115.094 183.079 114.25 183.924 113.208 183.924C112.165 183.924 111.321 183.079 111.321 182.037C111.321 180.995 112.165 180.15 113.208 180.15C114.25 180.15 115.094 180.995 115.094 182.037ZM122.642 183.924C123.684 183.924 124.529 183.079 124.529 182.037C124.529 180.995 123.684 180.15 122.642 180.15C121.6 180.15 120.755 180.995 120.755 182.037C120.755 183.079 121.6 183.924 122.642 183.924ZM133.962 182.037C133.962 183.079 133.117 183.924 132.075 183.924C131.033 183.924 130.189 183.079 130.189 182.037C130.189 180.995 131.033 180.15 132.075 180.15C133.117 180.15 133.962 180.995 133.962 182.037ZM141.509 183.924C142.551 183.924 143.396 183.079 143.396 182.037C143.396 180.995 142.551 180.15 141.509 180.15C140.467 180.15 139.622 180.995 139.622 182.037C139.622 183.079 140.467 183.924 141.509 183.924ZM105.66 191.471C105.66 192.513 104.816 193.358 103.774 193.358C102.732 193.358 101.887 192.513 101.887 191.471C101.887 190.429 102.732 189.584 103.774 189.584C104.816 189.584 105.66 190.429 105.66 191.471ZM84.9056 193.358C85.9476 193.358 86.7923 192.513 86.7923 191.471C86.7923 190.429 85.9476 189.584 84.9056 189.584C83.8635 189.584 83.0188 190.429 83.0188 191.471C83.0188 192.513 83.8635 193.358 84.9056 193.358ZM94.3401 193.358C95.3822 193.358 96.2269 192.513 96.2269 191.471C96.2269 190.429 95.3822 189.584 94.3401 189.584C93.2981 189.584 92.4534 190.429 92.4534 191.471C92.4534 192.513 93.2981 193.358 94.3401 193.358ZM113.208 193.358C114.25 193.358 115.094 192.513 115.094 191.471C115.094 190.429 114.25 189.584 113.208 189.584C112.165 189.584 111.321 190.429 111.321 191.471C111.321 192.513 112.165 193.358 113.208 193.358ZM124.529 191.471C124.529 192.513 123.684 193.358 122.642 193.358C121.6 193.358 120.755 192.513 120.755 191.471C120.755 190.429 121.6 189.584 122.642 189.584C123.684 189.584 124.529 190.429 124.529 191.471ZM132.075 193.358C133.117 193.358 133.962 192.513 133.962 191.471C133.962 190.429 133.117 189.584 132.075 189.584C131.033 189.584 130.189 190.429 130.189 191.471C130.189 192.513 131.033 193.358 132.075 193.358ZM143.396 191.471C143.396 192.513 142.551 193.358 141.509 193.358C140.467 193.358 139.622 192.513 139.622 191.471C139.622 190.429 140.467 189.584 141.509 189.584C142.551 189.584 143.396 190.429 143.396 191.471Z" fill="#ACAEFF"/>
<path fill-rule="evenodd" clip-rule="evenodd" d="M449.997 294.301C451.039 294.301 451.884 293.456 451.884 292.414C451.884 291.372 451.039 290.527 449.997 290.527C448.955 290.527 448.11 291.372 448.11 292.414C448.11 293.456 448.955 294.301 449.997 294.301ZM459.431 294.301C460.473 294.301 461.318 293.456 461.318 292.414C461.318 291.372 460.473 290.527 459.431 290.527C458.389 290.527 457.544 291.372 457.544 292.414C457.544 293.456 458.389 294.301 459.431 294.301ZM470.751 292.414C470.751 293.456 469.906 294.301 468.864 294.301C467.822 294.301 466.978 293.456 466.978 292.414C466.978 291.372 467.822 290.527 468.864 290.527C469.906 290.527 470.751 291.372 470.751 292.414ZM478.299 294.301C479.341 294.301 480.185 293.456 480.185 292.414C480.185 291.372 479.341 290.527 478.299 290.527C477.257 290.527 476.412 291.372 476.412 292.414C476.412 293.456 477.257 294.301 478.299 294.301ZM489.619 292.414C489.619 293.456 488.775 294.301 487.733 294.301C486.691 294.301 485.846 293.456 485.846 292.414C485.846 291.372 486.691 290.527 487.733 290.527C488.775 290.527 489.619 291.372 489.619 292.414ZM497.166 294.301C498.208 294.301 499.053 293.456 499.053 292.414C499.053 291.372 498.208 290.527 497.166 290.527C496.124 290.527 495.279 291.372 495.279 292.414C495.279 293.456 496.124 294.301 497.166 294.301ZM508.487 292.414C508.487 293.456 507.642 294.301 506.6 294.301C505.558 294.301 504.714 293.456 504.714 292.414C504.714 291.372 505.558 290.527 506.6 290.527C507.642 290.527 508.487 291.372 508.487 292.414ZM449.997 303.734C451.039 303.734 451.884 302.89 451.884 301.848C451.884 300.806 451.039 299.961 449.997 299.961C448.955 299.961 448.11 300.806 448.11 301.848C448.11 302.89 448.955 303.734 449.997 303.734ZM459.431 303.734C460.473 303.734 461.318 302.89 461.318 301.848C461.318 300.806 460.473 299.961 459.431 299.961C458.389 299.961 457.544 300.806 457.544 301.848C457.544 302.89 458.389 303.734 459.431 303.734ZM470.751 301.848C470.751 302.89 469.906 303.734 468.864 303.734C467.822 303.734 466.977 302.89 466.977 301.848C466.977 300.806 467.822 299.961 468.864 299.961C469.906 299.961 470.751 300.806 470.751 301.848ZM478.299 303.734C479.341 303.734 480.185 302.89 480.185 301.848C480.185 300.806 479.341 299.961 478.299 299.961C477.257 299.961 476.412 300.806 476.412 301.848C476.412 302.89 477.257 303.734 478.299 303.734ZM489.619 301.848C489.619 302.89 488.775 303.734 487.732 303.734C486.69 303.734 485.846 302.89 485.846 301.848C485.846 300.806 486.69 299.961 487.732 299.961C488.775 299.961 489.619 300.806 489.619 301.848ZM497.166 303.734C498.208 303.734 499.053 302.89 499.053 301.848C499.053 300.806 498.208 299.961 497.166 299.961C496.124 299.961 495.279 300.806 495.279 301.848C495.279 302.89 496.124 303.734 497.166 303.734ZM508.487 301.848C508.487 302.89 507.642 303.734 506.6 303.734C505.558 303.734 504.714 302.89 504.714 301.848C504.714 300.806 505.558 299.961 506.6 299.961C507.642 299.961 508.487 300.806 508.487 301.848ZM451.884 311.282C451.884 312.324 451.039 313.168 449.997 313.168C448.955 313.168 448.11 312.324 448.11 311.282C448.11 310.24 448.955 309.395 449.997 309.395C451.039 309.395 451.884 310.24 451.884 311.282ZM461.318 311.282C461.318 312.324 460.473 313.168 459.431 313.168C458.389 313.168 457.544 312.324 457.544 311.282C457.544 310.24 458.389 309.395 459.431 309.395C460.473 309.395 461.318 310.24 461.318 311.282ZM468.864 313.168C469.906 313.168 470.751 312.324 470.751 311.282C470.751 310.24 469.906 309.395 468.864 309.395C467.822 309.395 466.977 310.24 466.977 311.282C466.977 312.324 467.822 313.168 468.864 313.168ZM480.185 311.282C480.185 312.324 479.341 313.168 478.299 313.168C477.257 313.168 476.412 312.324 476.412 311.282C476.412 310.24 477.257 309.395 478.299 309.395C479.341 309.395 480.185 310.24 480.185 311.282ZM487.732 313.168C488.775 313.168 489.619 312.324 489.619 311.282C489.619 310.24 488.775 309.395 487.732 309.395C486.69 309.395 485.846 310.24 485.846 311.282C485.846 312.324 486.69 313.168 487.732 313.168ZM499.053 311.282C499.053 312.324 498.208 313.168 497.166 313.168C496.124 313.168 495.279 312.324 495.279 311.282C495.279 310.24 496.124 309.395 497.166 309.395C498.208 309.395 499.053 310.24 499.053 311.282ZM506.6 313.168C507.642 313.168 508.487 312.324 508.487 311.282C508.487 310.24 507.642 309.395 506.6 309.395C505.558 309.395 504.714 310.24 504.714 311.282C504.714 312.324 505.558 313.168 506.6 313.168ZM449.997 322.602C451.039 322.602 451.884 321.758 451.884 320.715C451.884 319.673 451.039 318.829 449.997 318.829C448.955 318.829 448.11 319.673 448.11 320.715C448.11 321.758 448.955 322.602 449.997 322.602ZM459.431 322.602C460.473 322.602 461.318 321.758 461.318 320.715C461.318 319.673 460.473 318.829 459.431 318.829C458.389 318.829 457.544 319.673 457.544 320.715C457.544 321.758 458.389 322.602 459.431 322.602ZM470.751 320.715C470.751 321.758 469.906 322.602 468.864 322.602C467.822 322.602 466.977 321.758 466.977 320.715C466.977 319.673 467.822 318.829 468.864 318.829C469.906 318.829 470.751 319.673 470.751 320.715ZM478.299 322.602C479.341 322.602 480.185 321.758 480.185 320.715C480.185 319.673 479.341 318.829 478.299 318.829C477.257 318.829 476.412 319.673 476.412 320.715C476.412 321.758 477.257 322.602 478.299 322.602ZM489.619 320.715C489.619 321.758 488.775 322.602 487.732 322.602C486.69 322.602 485.846 321.758 485.846 320.715C485.846 319.673 486.69 318.829 487.732 318.829C488.775 318.829 489.619 319.673 489.619 320.715ZM497.166 322.602C498.208 322.602 499.053 321.758 499.053 320.715C499.053 319.673 498.208 318.829 497.166 318.829C496.124 318.829 495.279 319.673 495.279 320.715C495.279 321.758 496.124 322.602 497.166 322.602ZM508.487 320.715C508.487 321.758 507.642 322.602 506.6 322.602C505.558 322.602 504.714 321.758 504.714 320.715C504.714 319.673 505.558 318.829 506.6 318.829C507.642 318.829 508.487 319.673 508.487 320.715ZM451.884 330.149C451.884 331.191 451.039 332.036 449.997 332.036C448.955 332.036 448.11 331.191 448.11 330.149C448.11 329.107 448.955 328.263 449.997 328.263C451.039 328.263 451.884 329.107 451.884 330.149ZM461.318 330.149C461.318 331.191 460.473 332.036 459.431 332.036C458.389 332.036 457.544 331.191 457.544 330.149C457.544 329.107 458.389 328.263 459.431 328.263C460.473 328.263 461.318 329.107 461.318 330.149ZM468.864 332.036C469.906 332.036 470.751 331.191 470.751 330.149C470.751 329.107 469.906 328.263 468.864 328.263C467.822 328.263 466.977 329.107 466.977 330.149C466.977 331.191 467.822 332.036 468.864 332.036ZM480.185 330.149C480.185 331.191 479.341 332.036 478.299 332.036C477.257 332.036 476.412 331.191 476.412 330.149C476.412 329.107 477.257 328.263 478.299 328.263C479.341 328.263 480.185 329.107 480.185 330.149ZM487.732 332.036C488.775 332.036 489.619 331.191 489.619 330.149C489.619 329.107 488.775 328.263 487.732 328.263C486.69 328.263 485.846 329.107 485.846 330.149C485.846 331.191 486.69 332.036 487.732 332.036ZM499.053 330.149C499.053 331.191 498.208 332.036 497.166 332.036C496.124 332.036 495.279 331.191 495.279 330.149C495.279 329.107 496.124 328.263 497.166 328.263C498.208 328.263 499.053 329.107 499.053 330.149ZM506.6 332.036C507.642 332.036 508.487 331.191 508.487 330.149C508.487 329.107 507.642 328.263 506.6 328.263C505.558 328.263 504.714 329.107 504.714 330.149C504.714 331.191 505.558 332.036 506.6 332.036ZM449.997 341.47C451.039 341.47 451.884 340.625 451.884 339.583C451.884 338.541 451.039 337.697 449.997 337.697C448.955 337.697 448.11 338.541 448.11 339.583C448.11 340.625 448.955 341.47 449.997 341.47ZM459.431 341.47C460.473 341.47 461.318 340.625 461.318 339.583C461.318 338.541 460.473 337.697 459.431 337.697C458.389 337.697 457.544 338.541 457.544 339.583C457.544 340.625 458.389 341.47 459.431 341.47ZM470.751 339.583C470.751 340.625 469.906 341.47 468.864 341.47C467.822 341.47 466.977 340.625 466.977 339.583C466.977 338.541 467.822 337.697 468.864 337.697C469.906 337.697 470.751 338.541 470.751 339.583ZM478.299 341.47C479.341 341.47 480.185 340.625 480.185 339.583C480.185 338.541 479.341 337.697 478.299 337.697C477.257 337.697 476.412 338.541 476.412 339.583C476.412 340.625 477.257 341.47 478.299 341.47ZM489.619 339.583C489.619 340.625 488.775 341.47 487.732 341.47C486.69 341.47 485.846 340.625 485.846 339.583C485.846 338.541 486.69 337.697 487.732 337.697C488.775 337.697 489.619 338.541 489.619 339.583ZM497.166 341.47C498.208 341.47 499.053 340.625 499.053 339.583C499.053 338.541 498.208 337.697 497.166 337.697C496.124 337.697 495.279 338.541 495.279 339.583C495.279 340.625 496.124 341.47 497.166 341.47ZM508.487 339.583C508.487 340.625 507.642 341.47 506.6 341.47C505.558 341.47 504.714 340.625 504.714 339.583C504.714 338.541 505.558 337.697 506.6 337.697C507.642 337.697 508.487 338.541 508.487 339.583ZM451.884 349.017C451.884 350.059 451.039 350.904 449.997 350.904C448.955 350.904 448.11 350.059 448.11 349.017C448.11 347.975 448.955 347.13 449.997 347.13C451.039 347.13 451.884 347.975 451.884 349.017ZM461.318 349.017C461.318 350.059 460.473 350.904 459.431 350.904C458.389 350.904 457.544 350.059 457.544 349.017C457.544 347.975 458.389 347.13 459.431 347.13C460.473 347.13 461.318 347.975 461.318 349.017ZM468.864 350.904C469.906 350.904 470.751 350.059 470.751 349.017C470.751 347.975 469.906 347.13 468.864 347.13C467.822 347.13 466.977 347.975 466.977 349.017C466.977 350.059 467.822 350.904 468.864 350.904ZM480.185 349.017C480.185 350.059 479.341 350.904 478.299 350.904C477.257 350.904 476.412 350.059 476.412 349.017C476.412 347.975 477.257 347.13 478.299 347.13C479.341 347.13 480.185 347.975 480.185 349.017ZM487.732 350.904C488.775 350.904 489.619 350.059 489.619 349.017C489.619 347.975 488.775 347.13 487.732 347.13C486.69 347.13 485.846 347.975 485.846 349.017C485.846 350.059 486.69 350.904 487.732 350.904ZM499.053 349.017C499.053 350.059 498.208 350.904 497.166 350.904C496.124 350.904 495.279 350.059 495.279 349.017C495.279 347.975 496.124 347.13 497.166 347.13C498.208 347.13 499.053 347.975 499.053 349.017ZM506.6 350.904C507.642 350.904 508.487 350.059 508.487 349.017C508.487 347.975 507.642 347.13 506.6 347.13C505.558 347.13 504.714 347.975 504.714 349.017C504.714 350.059 505.558 350.904 506.6 350.904ZM449.997 360.338C451.039 360.338 451.884 359.493 451.884 358.451C451.884 357.409 451.039 356.564 449.997 356.564C448.955 356.564 448.11 357.409 448.11 358.451C448.11 359.493 448.955 360.338 449.997 360.338ZM459.431 360.338C460.473 360.338 461.318 359.493 461.318 358.451C461.318 357.409 460.473 356.564 459.431 356.564C458.389 356.564 457.544 357.409 457.544 358.451C457.544 359.493 458.389 360.338 459.431 360.338ZM470.751 358.451C470.751 359.493 469.906 360.338 468.864 360.338C467.822 360.338 466.977 359.493 466.977 358.451C466.977 357.409 467.822 356.564 468.864 356.564C469.906 356.564 470.751 357.409 470.751 358.451ZM478.299 360.338C479.341 360.338 480.185 359.493 480.185 358.451C480.185 357.409 479.341 356.564 478.299 356.564C477.257 356.564 476.412 357.409 476.412 358.451C476.412 359.493 477.257 360.338 478.299 360.338ZM489.619 358.451C489.619 359.493 488.775 360.338 487.732 360.338C486.69 360.338 485.846 359.493 485.846 358.451C485.846 357.409 486.69 356.564 487.732 356.564C488.775 356.564 489.619 357.409 489.619 358.451ZM497.166 360.338C498.208 360.338 499.053 359.493 499.053 358.451C499.053 357.409 498.208 356.564 497.166 356.564C496.124 356.564 495.279 357.409 495.279 358.451C495.279 359.493 496.124 360.338 497.166 360.338ZM508.487 358.451C508.487 359.493 507.642 360.338 506.6 360.338C505.558 360.338 504.714 359.493 504.714 358.451C504.714 357.409 505.558 356.564 506.6 356.564C507.642 356.564 508.487 357.409 508.487 358.451ZM451.884 367.885C451.884 368.927 451.039 369.772 449.997 369.772C448.955 369.772 448.11 368.927 448.11 367.885C448.11 366.843 448.955 365.998 449.997 365.998C451.039 365.998 451.884 366.843 451.884 367.885ZM461.318 367.885C461.318 368.927 460.473 369.772 459.431 369.772C458.389 369.772 457.544 368.927 457.544 367.885C457.544 366.843 458.389 365.998 459.431 365.998C460.473 365.998 461.318 366.843 461.318 367.885ZM468.864 369.772C469.906 369.772 470.751 368.927 470.751 367.885C470.751 366.843 469.906 365.998 468.864 365.998C467.822 365.998 466.977 366.843 466.977 367.885C466.977 368.927 467.822 369.772 468.864 369.772ZM480.185 367.885C480.185 368.927 479.341 369.772 478.299 369.772C477.257 369.772 476.412 368.927 476.412 367.885C476.412 366.843 477.257 365.998 478.299 365.998C479.341 365.998 480.185 366.843 480.185 367.885ZM487.732 369.772C488.775 369.772 489.619 368.927 489.619 367.885C489.619 366.843 488.775 365.998 487.732 365.998C486.69 365.998 485.846 366.843 485.846 367.885C485.846 368.927 486.69 369.772 487.732 369.772ZM499.053 367.885C499.053 368.927 498.208 369.772 497.166 369.772C496.124 369.772 495.279 368.927 495.279 367.885C495.279 366.843 496.124 365.998 497.166 365.998C498.208 365.998 499.053 366.843 499.053 367.885ZM506.6 369.772C507.642 369.772 508.487 368.927 508.487 367.885C508.487 366.843 507.642 365.998 506.6 365.998C505.558 365.998 504.714 366.843 504.714 367.885C504.714 368.927 505.558 369.772 506.6 369.772ZM459.431 379.206C460.473 379.206 461.318 378.361 461.318 377.319C461.318 376.277 460.473 375.432 459.431 375.432C458.389 375.432 457.544 376.277 457.544 377.319C457.544 378.361 458.389 379.206 459.431 379.206ZM449.997 379.206C451.039 379.206 451.884 378.361 451.884 377.319C451.884 376.277 451.039 375.432 449.997 375.432C448.955 375.432 448.11 376.277 448.11 377.319C448.11 378.361 448.955 379.206 449.997 379.206ZM470.751 377.319C470.751 378.361 469.906 379.206 468.864 379.206C467.822 379.206 466.977 378.361 466.977 377.319C466.977 376.277 467.822 375.432 468.864 375.432C469.906 375.432 470.751 376.277 470.751 377.319ZM478.299 379.206C479.341 379.206 480.185 378.361 480.185 377.319C480.185 376.277 479.341 375.432 478.299 375.432C477.257 375.432 476.412 376.277 476.412 377.319C476.412 378.361 477.257 379.206 478.299 379.206ZM489.619 377.319C489.619 378.361 488.775 379.206 487.732 379.206C486.69 379.206 485.846 378.361 485.846 377.319C485.846 376.277 486.69 375.432 487.732 375.432C488.775 375.432 489.619 376.277 489.619 377.319ZM497.166 379.206C498.208 379.206 499.053 378.361 499.053 377.319C499.053 376.277 498.208 375.432 497.166 375.432C496.124 375.432 495.279 376.277 495.279 377.319C495.279 378.361 496.124 379.206 497.166 379.206ZM508.487 377.319C508.487 378.361 507.642 379.206 506.6 379.206C505.558 379.206 504.714 378.361 504.714 377.319C504.714 376.277 505.558 375.432 506.6 375.432C507.642 375.432 508.487 376.277 508.487 377.319Z" fill="#ACAEFF"/>
<path d="M111.32 415.998C97.169 389.583 86.7917 353.734 143.395 322.602C200.867 290.993 170.282 269.772 199.999 235.81C293.506 128.945 214.743 31.0004 311.319 5.6229C375.941 -11.3581 533.247 16.9073 540.563 116C545.752 186.282 496.538 207.823 466.978 226.376C444.337 244.961 407.356 298.734 440.563 365.149" stroke="#ACAEFF" stroke-width="1.88678" stroke-linecap="round" stroke-linejoin="round" stroke-dasharray="3.77 3.77"/>
<rect x="320.753" y="15.0569" width="196.225" height="93.3957" rx="11.3207" fill="white"/>
<path d="M336.209 35.5285H338.315V42.1511H339.899V35.5285H342.005V34.2493H336.209V35.5285ZM349.218 39.0153C349.218 37.0342 347.803 35.7776 345.992 35.7776C344.18 35.7776 342.765 37.0342 342.765 39.0153C342.765 40.9851 344.135 42.253 345.946 42.253C347.769 42.253 349.218 40.9851 349.218 39.0153ZM344.373 39.0153C344.373 37.7587 345.131 37.1587 345.969 37.1587C346.807 37.1587 347.588 37.7587 347.588 39.0153C347.588 40.2606 346.784 40.8719 345.946 40.8719C345.097 40.8719 344.373 40.2606 344.373 39.0153ZM350.63 40.204C350.63 41.6417 351.434 42.1511 352.634 42.1511H353.63V40.8153H352.894C352.396 40.8153 352.226 40.6342 352.226 40.2153V37.1813H353.63V35.8795H352.226V34.3285H350.63V35.8795H349.883V37.1813H350.63V40.204ZM354.362 38.9926C354.362 40.9511 355.63 42.253 357.215 42.253C358.211 42.253 358.924 41.7775 359.298 41.2341V42.1511H360.894V35.8795H359.298V36.7738C358.924 36.253 358.234 35.7776 357.226 35.7776C355.63 35.7776 354.362 37.0342 354.362 38.9926ZM359.298 39.0153C359.298 40.204 358.505 40.8606 357.634 40.8606C356.785 40.8606 355.981 40.1813 355.981 38.9926C355.981 37.804 356.785 37.17 357.634 37.17C358.505 37.17 359.298 37.8266 359.298 39.0153ZM362.442 42.1511H364.027V33.7738H362.442V42.1511ZM372.875 34.238H368.29V42.1511H372.875V40.8606H369.875V38.7662H372.536V37.5096H369.875V35.5285H372.875V34.238ZM373.908 38.9926C373.908 40.9511 375.176 42.253 376.761 42.253C377.757 42.253 378.47 41.7775 378.844 41.2341V42.1511H380.44V35.8795H378.844V36.7738C378.47 36.253 377.78 35.7776 376.772 35.7776C375.176 35.7776 373.908 37.0342 373.908 38.9926ZM378.844 39.0153C378.844 40.204 378.051 40.8606 377.18 40.8606C376.331 40.8606 375.527 40.1813 375.527 38.9926C375.527 37.804 376.331 37.17 377.18 37.17C378.051 37.17 378.844 37.8266 378.844 39.0153ZM383.573 39.0266C383.573 37.8153 384.139 37.453 385.079 37.453H385.497V35.7889C384.626 35.7889 383.969 36.2078 383.573 36.853V35.8795H381.988V42.1511H383.573V39.0266ZM390.957 42.1511H392.542V38.4719C392.542 36.7398 391.501 35.7889 390.04 35.7889C389.237 35.7889 388.557 36.1285 388.15 36.6606V35.8795H386.565V42.1511H388.15V38.687C388.15 37.6794 388.705 37.1361 389.565 37.1361C390.403 37.1361 390.957 37.6794 390.957 38.687V42.1511ZM394.049 42.1511H395.634V35.8795H394.049V42.1511ZM394.853 35.1323C395.408 35.1323 395.827 34.7247 395.827 34.204C395.827 33.6832 395.408 33.2757 394.853 33.2757C394.287 33.2757 393.88 33.6832 393.88 34.204C393.88 34.7247 394.287 35.1323 394.853 35.1323ZM401.593 42.1511H403.177V38.4719C403.177 36.7398 402.136 35.7889 400.676 35.7889C399.872 35.7889 399.193 36.1285 398.785 36.6606V35.8795H397.2V42.1511H398.785V38.687C398.785 37.6794 399.34 37.1361 400.2 37.1361C401.038 37.1361 401.593 37.6794 401.593 38.687V42.1511ZM404.277 38.9926C404.277 40.9511 405.545 42.253 407.141 42.253C408.126 42.253 408.839 41.7662 409.213 41.2228V42.1964C409.213 43.3624 408.534 43.8605 407.662 43.8605C406.87 43.8605 406.281 43.487 406.122 42.9209H404.549C404.707 44.3587 405.941 45.2417 407.707 45.2417C409.768 45.2417 410.809 43.8945 410.809 42.1964V35.8795H409.213V36.7738C408.839 36.2304 408.126 35.7776 407.141 35.7776C405.545 35.7776 404.277 37.0342 404.277 38.9926ZM409.213 39.0153C409.213 40.204 408.42 40.8606 407.549 40.8606C406.7 40.8606 405.896 40.1813 405.896 38.9926C405.896 37.804 406.7 37.17 407.549 37.17C408.42 37.17 409.213 37.8266 409.213 39.0153ZM417.225 40.3625C417.18 38.0644 413.704 38.7776 413.704 37.6342C413.704 37.2719 414.01 37.0342 414.599 37.0342C415.221 37.0342 415.606 37.3625 415.651 37.8493H417.168C417.078 36.604 416.161 35.7776 414.644 35.7776C413.093 35.7776 412.165 36.6153 412.165 37.6568C412.165 39.9549 415.708 39.2417 415.708 40.3625C415.708 40.7247 415.368 41.0077 414.746 41.0077C414.112 41.0077 413.67 40.6455 413.614 40.17H412.017C412.085 41.336 413.183 42.253 414.757 42.253C416.285 42.253 417.225 41.4379 417.225 40.3625Z" fill="#828282"/>
<path d="M351.515 62.7134V75.8454L342.881 62.7134H337.718V83.9058H342.881V70.8341L351.515 83.9058H356.677V62.7134H351.515ZM360.087 68.087H365.128C365.219 66.8794 365.822 65.6719 367.483 65.6719C368.872 65.6719 369.747 66.487 369.747 67.9662C369.747 69.9587 368.056 70.3813 366.305 70.3813H365.339V74.5775H366.305C368.992 74.5775 370.17 75.3624 370.17 77.3247C370.17 78.7737 369.294 79.8001 367.694 79.8001C365.792 79.8001 364.856 78.653 364.826 76.9322H359.815C359.966 81.9133 363.287 84.0869 367.875 84.0869C372.494 84.0869 375.151 81.4303 375.151 77.7171C375.151 74.819 373.641 73.1285 371.438 72.4039V72.2832C372.947 71.77 374.758 70.2304 374.758 67.3323C374.758 64.0115 372.253 61.3549 367.604 61.3549C363.105 61.3549 360.268 63.7398 360.087 68.087ZM388.448 83.9058H393.61V79.9813H396.086V75.5134H393.61V62.17H387.844L378.304 75.8152V79.9813H388.448V83.9058ZM383.738 75.5134L388.81 67.8455V75.5134H383.738ZM398.795 68.087H403.837C403.927 66.8794 404.531 65.6719 406.191 65.6719C407.58 65.6719 408.455 66.487 408.455 67.9662C408.455 69.9587 406.765 70.3813 405.014 70.3813H404.048V74.5775H405.014C407.701 74.5775 408.878 75.3624 408.878 77.3247C408.878 78.7737 408.003 79.8001 406.403 79.8001C404.501 79.8001 403.565 78.653 403.535 76.9322H398.523C398.674 81.9133 401.995 84.0869 406.584 84.0869C411.203 84.0869 413.859 81.4303 413.859 77.7171C413.859 74.819 412.35 73.1285 410.146 72.4039V72.2832C411.655 71.77 413.467 70.2304 413.467 67.3323C413.467 64.0115 410.961 61.3549 406.312 61.3549C401.814 61.3549 398.976 63.7398 398.795 68.087ZM418.311 61.838V74.97H423.292C423.564 73.9436 424.409 73.1586 425.858 73.1586C427.7 73.1586 428.696 74.2152 428.696 76.2077C428.696 78.1096 427.851 79.5284 425.888 79.5284C424.198 79.5284 423.322 78.502 423.111 77.3549H418.07C418.251 81.1586 421.119 83.9058 426.07 83.9058C430.96 83.9058 433.677 80.8869 433.677 76.2379C433.677 72.6756 431.836 69.0228 427.036 69.0228C425.285 69.0228 423.775 69.6568 422.99 70.5322V66.3662H432.409V61.838H418.311ZM442.504 81.3699C442.504 79.7699 441.266 78.5322 439.455 78.5322C437.613 78.5322 436.376 79.7699 436.376 81.3699C436.376 82.9095 437.613 84.1473 439.455 84.1473C441.266 84.1473 442.504 82.9095 442.504 81.3699ZM444.533 61.8983V66.3059H453.922L446.254 83.9058H451.537L459.114 65.7323V61.8983H444.533ZM464.825 72.0719C462.712 73.0681 461.474 74.9398 461.474 77.4454C461.474 81.8529 465.127 84.3284 469.625 84.3284C474.123 84.3284 477.776 81.8529 477.776 77.4454C477.776 74.9398 476.538 73.0983 474.395 72.0719C476.055 71.1964 477.232 69.5964 477.232 67.3323C477.232 64.1927 474.817 61.4153 469.625 61.4153C464.432 61.4153 461.987 64.1927 461.987 67.3323C461.987 69.6568 463.134 71.1662 464.825 72.0719ZM469.625 70.6832C468.146 70.6832 467.029 69.7473 467.029 68.1474C467.029 66.4568 468.085 65.521 469.625 65.521C471.164 65.521 472.221 66.4568 472.221 68.1172C472.221 69.7172 471.104 70.6832 469.625 70.6832ZM469.625 74.3058C471.466 74.3058 472.734 75.3926 472.734 77.2039C472.734 78.8341 471.587 80.102 469.625 80.102C467.632 80.102 466.455 78.8643 466.455 77.2039C466.455 75.3322 467.783 74.3058 469.625 74.3058Z" fill="#1A7A0F"/>
<rect x="501.884" y="142.415" width="84.9052" height="45.2828" rx="11.3207" fill="#FC3A3A"/>
<path d="M526.412 174.49C531.623 174.49 535.846 170.266 535.846 165.056C535.846 159.846 531.623 155.622 526.412 155.622C521.202 155.622 516.979 159.846 516.979 165.056C516.979 170.266 521.202 174.49 526.412 174.49Z" stroke="white" stroke-width="1.88678" stroke-linecap="round" stroke-linejoin="round"/>
<path d="M530.186 165.056L526.412 161.282L522.639 165.056" stroke="white" stroke-width="1.88678" stroke-linecap="round" stroke-linejoin="round"/>
<path d="M526.413 168.83V161.282" stroke="white" stroke-width="1.88678" stroke-linecap="round" stroke-linejoin="round"/>
<path d="M555.537 163.465L553.677 164.035C553.607 163.655 553.417 163.31 553.107 163C552.797 162.69 552.342 162.535 551.742 162.535C551.252 162.535 550.852 162.67 550.542 162.94C550.232 163.2 550.077 163.515 550.077 163.885C550.077 164.535 550.462 164.935 551.232 165.085L552.717 165.37C553.657 165.55 554.387 165.925 554.907 166.495C555.427 167.065 555.687 167.735 555.687 168.505C555.687 169.385 555.337 170.155 554.637 170.815C553.947 171.465 553.017 171.79 551.847 171.79C551.177 171.79 550.572 171.69 550.032 171.49C549.492 171.29 549.057 171.025 548.727 170.695C548.397 170.355 548.137 170 547.947 169.63C547.767 169.25 547.657 168.86 547.617 168.46L549.537 167.95C549.587 168.52 549.807 168.995 550.197 169.375C550.597 169.755 551.152 169.945 551.862 169.945C552.402 169.945 552.822 169.825 553.122 169.585C553.432 169.345 553.587 169.03 553.587 168.64C553.587 168.33 553.472 168.065 553.242 167.845C553.022 167.615 552.707 167.46 552.297 167.38L550.812 167.08C549.952 166.9 549.272 166.545 548.772 166.015C548.272 165.485 548.022 164.825 548.022 164.035C548.022 163.095 548.382 162.305 549.102 161.665C549.832 161.025 550.707 160.705 551.727 160.705C552.337 160.705 552.882 160.79 553.362 160.96C553.842 161.13 554.227 161.36 554.517 161.65C554.807 161.93 555.032 162.22 555.192 162.52C555.352 162.82 555.467 163.135 555.537 163.465ZM558.681 167.035H561.981C561.961 166.625 561.811 166.28 561.531 166C561.261 165.72 560.861 165.58 560.331 165.58C559.851 165.58 559.461 165.73 559.161 166.03C558.861 166.33 558.701 166.665 558.681 167.035ZM562.176 168.955L563.841 169.45C563.641 170.13 563.246 170.69 562.656 171.13C562.076 171.57 561.351 171.79 560.481 171.79C559.421 171.79 558.521 171.435 557.781 170.725C557.041 170.005 556.671 169.045 556.671 167.845C556.671 166.705 557.031 165.775 557.751 165.055C558.471 164.325 559.321 163.96 560.301 163.96C561.441 163.96 562.331 164.3 562.971 164.98C563.621 165.66 563.946 166.595 563.946 167.785C563.946 167.865 563.941 167.955 563.931 168.055C563.931 168.155 563.931 168.235 563.931 168.295L563.916 168.4H558.636C558.656 168.88 558.846 169.28 559.206 169.6C559.566 169.92 559.996 170.08 560.496 170.08C561.346 170.08 561.906 169.705 562.176 168.955ZM567.512 171.565H565.517V160.705H567.512V171.565ZM571.643 171.565H569.648V160.705H571.643V171.565Z" fill="white"/>
<rect x="62.2637" y="344.3" width="85.8486" height="45.2828" rx="11.3207" fill="#03B962"/>
<path d="M86.7923 376.376C92.0025 376.376 96.2262 372.152 96.2262 366.942C96.2262 361.732 92.0025 357.508 86.7923 357.508C81.5821 357.508 77.3584 361.732 77.3584 366.942C77.3584 372.152 81.5821 376.376 86.7923 376.376Z" stroke="white" stroke-width="1.88678" stroke-linecap="round" stroke-linejoin="round"/>
<path d="M83.0186 366.942L86.7921 370.715L90.5657 366.942" stroke="white" stroke-width="1.88678" stroke-linecap="round" stroke-linejoin="round"/>
<path d="M86.792 363.168V370.715" stroke="white" stroke-width="1.88678" stroke-linecap="round" stroke-linejoin="round"/>
<path d="M108.762 362.816H112.587C113.597 362.816 114.387 363.081 114.957 363.611C115.537 364.141 115.827 364.831 115.827 365.681C115.827 366.221 115.682 366.701 115.392 367.121C115.102 367.531 114.732 367.811 114.282 367.961C114.822 368.091 115.267 368.386 115.617 368.846C115.977 369.296 116.157 369.841 116.157 370.481C116.157 371.351 115.857 372.066 115.257 372.626C114.657 373.176 113.862 373.451 112.872 373.451H108.762V362.816ZM110.802 367.211H112.272C112.742 367.211 113.112 367.091 113.382 366.851C113.652 366.611 113.787 366.286 113.787 365.876C113.787 365.466 113.652 365.146 113.382 364.916C113.122 364.676 112.747 364.556 112.257 364.556H110.802V367.211ZM110.802 371.726H112.482C112.982 371.726 113.372 371.606 113.652 371.366C113.942 371.116 114.087 370.776 114.087 370.346C114.087 369.916 113.947 369.571 113.667 369.311C113.397 369.051 113.012 368.921 112.512 368.921H110.802V371.726ZM122.48 373.451C122.44 373.251 122.42 372.986 122.42 372.656C122.23 372.986 121.945 373.236 121.565 373.406C121.195 373.566 120.8 373.646 120.38 373.646C119.51 373.646 118.825 373.371 118.325 372.821C117.825 372.261 117.575 371.566 117.575 370.736V366.071H119.57V370.331C119.57 370.771 119.685 371.131 119.915 371.411C120.145 371.681 120.48 371.816 120.92 371.816C121.35 371.816 121.69 371.686 121.94 371.426C122.19 371.156 122.315 370.801 122.315 370.361V366.071H124.31V372.116C124.31 372.586 124.335 373.031 124.385 373.451H122.48ZM128.989 376.361H126.874L128.614 372.521L125.479 366.071H127.714L129.679 370.391L131.494 366.071H133.624L128.989 376.361Z" fill="white"/>
<g filter="url(#filter0_d_136_4965)">
<path d="M273.583 163.169H103.772V259.513C103.772 265.395 107.189 270.742 112.528 273.212L175.999 302.584C184.042 306.306 193.314 306.306 201.356 302.584L264.828 273.212C270.166 270.742 273.583 265.395 273.583 259.513V163.169Z" fill="white"/>
</g>
<rect x="146.225" y="212.226" width="84.9052" height="0.943391" fill="#E0E0E0"/>
<path d="M162.738 189.603V186.177H164.64C165.983 186.177 166.587 186.811 166.587 187.897C166.587 188.954 165.983 189.603 164.64 189.603H162.738ZM168.353 187.897C168.353 186.192 167.131 184.773 164.64 184.773H161.017V195.263H162.738V191.007H164.64C167.372 191.007 168.353 189.392 168.353 187.897ZM171.715 190.886C171.715 189.12 172.5 188.592 173.768 188.592H174.206V186.811C173.028 186.811 172.198 187.324 171.715 188.154V186.946H169.994V195.263H171.715V190.886ZM183.712 191.097C183.712 188.486 181.84 186.811 179.47 186.811C177.101 186.811 175.229 188.486 175.229 191.097C175.229 193.709 177.025 195.399 179.395 195.399C181.78 195.399 183.712 193.709 183.712 191.097ZM176.98 191.097C176.98 189.211 178.142 188.305 179.44 188.305C180.723 188.305 181.946 189.211 181.946 191.097C181.946 192.984 180.678 193.905 179.395 193.905C178.097 193.905 176.98 192.984 176.98 191.097ZM184.839 191.067C184.839 193.633 186.575 195.399 188.764 195.399C190.122 195.399 191.119 194.765 191.647 194.011V195.263H193.383V184.094H191.647V188.109C191.013 187.324 189.866 186.811 188.779 186.811C186.575 186.811 184.839 188.501 184.839 191.067ZM191.647 191.097C191.647 192.894 190.424 193.905 189.126 193.905C187.843 193.905 186.605 192.863 186.605 191.067C186.605 189.271 187.843 188.305 189.126 188.305C190.424 188.305 191.647 189.316 191.647 191.097ZM203.175 186.946H201.454V191.58C201.454 193.105 200.624 193.89 199.356 193.89C198.103 193.89 197.273 193.105 197.273 191.58V186.946H195.567V191.837C195.567 194.162 197.047 195.384 198.994 195.384C199.975 195.384 200.911 194.977 201.454 194.267V195.263H203.175V186.946ZM204.872 191.097C204.872 193.709 206.562 195.399 208.947 195.399C210.985 195.399 212.313 194.267 212.781 192.637H210.924C210.607 193.497 209.973 193.95 208.947 193.95C207.558 193.95 206.638 192.924 206.638 191.097C206.638 189.286 207.558 188.26 208.947 188.26C209.973 188.26 210.638 188.773 210.924 189.573H212.781C212.313 187.822 210.985 186.811 208.947 186.811C206.562 186.811 204.872 188.501 204.872 191.097ZM214.768 192.954C214.768 194.645 215.688 195.263 217.168 195.263H218.526V193.829H217.469C216.745 193.829 216.503 193.573 216.503 192.954V188.35H218.526V186.946H216.503V184.879H214.768V186.946H213.786V188.35H214.768V192.954Z" fill="#12133D"/>
<mask id="mask0_136_4965" style="mask-type:alpha" maskUnits="userSpaceOnUse" x="103" y="46" width="171" height="118">
<path fill-rule="evenodd" clip-rule="evenodd" d="M103.772 65.5281C114.193 65.5279 122.64 57.0806 122.64 46.6603C122.64 46.5027 122.638 46.3454 122.634 46.1887H254.721C254.717 46.3454 254.715 46.5027 254.715 46.6603C254.715 57.0807 263.162 65.5281 273.583 65.5281C273.583 65.5281 273.583 65.5281 273.583 65.5281V163.169H103.772V65.5281Z" fill="white"/>
</mask>
<g mask="url(#mask0_136_4965)">
<path d="M273.583 46.1887H103.772V163.169H273.583V46.1887Z" fill="#C1D7BE"/>
</g>
<g filter="url(#filter1_d_136_4965)">
<path d="M486.79 314.112H316.979V410.456C316.979 416.338 320.396 421.684 325.735 424.155L389.206 453.527C397.249 457.249 406.521 457.249 414.563 453.527L478.035 424.155C483.373 421.684 486.79 416.338 486.79 410.456V314.112Z" fill="white"/>
</g>
<rect x="359.432" y="363.168" width="84.9052" height="0.943391" fill="#E0E0E0"/>
<path d="M375.945 340.546V337.119H377.847C379.19 337.119 379.794 337.753 379.794 338.84C379.794 339.897 379.19 340.546 377.847 340.546H375.945ZM381.56 338.84C381.56 337.134 380.338 335.716 377.847 335.716H374.224V346.206H375.945V341.949H377.847C380.579 341.949 381.56 340.334 381.56 338.84ZM384.922 341.829C384.922 340.063 385.707 339.534 386.975 339.534H387.413V337.753C386.235 337.753 385.405 338.266 384.922 339.097V337.889H383.201V346.206H384.922V341.829ZM396.919 342.04C396.919 339.429 395.047 337.753 392.677 337.753C390.308 337.753 388.436 339.429 388.436 342.04C388.436 344.651 390.232 346.342 392.602 346.342C394.987 346.342 396.919 344.651 396.919 342.04ZM390.187 342.04C390.187 340.153 391.349 339.248 392.647 339.248C393.93 339.248 395.153 340.153 395.153 342.04C395.153 343.927 393.885 344.848 392.602 344.848C391.304 344.848 390.187 343.927 390.187 342.04ZM398.046 342.01C398.046 344.576 399.782 346.342 401.971 346.342C403.329 346.342 404.326 345.708 404.854 344.953V346.206H406.59V335.036H404.854V339.051C404.22 338.266 403.073 337.753 401.986 337.753C399.782 337.753 398.046 339.444 398.046 342.01ZM404.854 342.04C404.854 343.836 403.631 344.848 402.333 344.848C401.05 344.848 399.812 343.806 399.812 342.01C399.812 340.214 401.05 339.248 402.333 339.248C403.631 339.248 404.854 340.259 404.854 342.04ZM416.382 337.889H414.661V342.523C414.661 344.048 413.831 344.832 412.563 344.832C411.31 344.832 410.48 344.048 410.48 342.523V337.889H408.774V342.78C408.774 345.104 410.254 346.327 412.201 346.327C413.182 346.327 414.118 345.919 414.661 345.21V346.206H416.382V337.889ZM418.079 342.04C418.079 344.651 419.769 346.342 422.154 346.342C424.192 346.342 425.52 345.21 425.988 343.58H424.131C423.814 344.44 423.181 344.893 422.154 344.893C420.765 344.893 419.845 343.866 419.845 342.04C419.845 340.229 420.765 339.202 422.154 339.202C423.181 339.202 423.845 339.716 424.131 340.516H425.988C425.52 338.765 424.192 337.753 422.154 337.753C419.769 337.753 418.079 339.444 418.079 342.04ZM427.975 343.897C427.975 345.587 428.895 346.206 430.375 346.206H431.733V344.772H430.676C429.952 344.772 429.71 344.515 429.71 343.897V339.293H431.733V337.889H429.71V335.821H427.975V337.889H426.993V339.293H427.975V343.897Z" fill="#12133D"/>
<mask id="mask1_136_4965" style="mask-type:alpha" maskUnits="userSpaceOnUse" x="316" y="197" width="171" height="118">
<path fill-rule="evenodd" clip-rule="evenodd" d="M316.979 216.471C327.4 216.471 335.847 208.023 335.847 197.603C335.847 197.445 335.845 197.288 335.841 197.131H467.928C467.924 197.288 467.922 197.445 467.922 197.603C467.922 208.023 476.369 216.471 486.79 216.471L486.79 314.112H316.979V216.471Z" fill="white"/>
</mask>
<g mask="url(#mask1_136_4965)">
<path d="M486.79 197.131H316.979V314.112H486.79V197.131Z" fill="#C1D7BE"/>
</g>
<defs>
<filter id="filter0_d_136_4965" x="84.9046" y="148.075" width="207.546" height="179.942" filterUnits="userSpaceOnUse" color-interpolation-filters="sRGB">
<feFlood flood-opacity="0" result="BackgroundImageFix"/>
<feColorMatrix in="SourceAlpha" type="matrix" values="0 0 0 0 0 0 0 0 0 0 0 0 0 0 0 0 0 0 127 0" result="hardAlpha"/>
<feOffset dy="3.77356"/>
<feGaussianBlur stdDeviation="9.43391"/>
<feColorMatrix type="matrix" values="0 0 0 0 0 0 0 0 0 0 0 0 0 0 0 0 0 0 0.2 0"/>
<feBlend mode="normal" in2="BackgroundImageFix" result="effect1_dropShadow_136_4965"/>
<feBlend mode="normal" in="SourceGraphic" in2="effect1_dropShadow_136_4965" result="shape"/>
</filter>
<filter id="filter1_d_136_4965" x="298.112" y="299.018" width="207.546" height="179.942" filterUnits="userSpaceOnUse" color-interpolation-filters="sRGB">
<feFlood flood-opacity="0" result="BackgroundImageFix"/>
<feColorMatrix in="SourceAlpha" type="matrix" values="0 0 0 0 0 0 0 0 0 0 0 0 0 0 0 0 0 0 127 0" result="hardAlpha"/>
<feOffset dy="3.77356"/>
<feGaussianBlur stdDeviation="9.43391"/>
<feColorMatrix type="matrix" values="0 0 0 0 0 0 0 0 0 0 0 0 0 0 0 0 0 0 0.2 0"/>
<feBlend mode="normal" in2="BackgroundImageFix" result="effect1_dropShadow_136_4965"/>
<feBlend mode="normal" in="SourceGraphic" in2="effect1_dropShadow_136_4965" result="shape"/>
</filter>
</defs>
</svg>
