<svg width="50" height="52" viewBox="0 0 50 52" fill="none" xmlns="http://www.w3.org/2000/svg">
<path d="M50 6.1923V45.859C50 48.9886 47.5127 51.5256 44.4444 51.5256H34.0278C33.2607 51.5256 32.6389 50.8914 32.6389 50.109V33.109H39.1389C39.799 33.1091 40.368 32.6353 40.5 31.9756L41.5 26.8756C41.5413 26.6696 41.4907 26.4555 41.3619 26.2913C41.2331 26.1271 41.0394 26.0298 40.8333 26.0256H32.6389V16.8173C32.6389 16.4261 32.9498 16.109 33.3333 16.109H40.2778C41.0448 16.109 41.6667 15.4747 41.6667 14.6923V10.4423C41.6667 9.6599 41.0448 9.02563 40.2778 9.02563H33.3333C28.731 9.02563 25 12.8312 25 17.5256V26.0256H21.5833C20.8163 26.0256 20.1944 26.6599 20.1944 27.4423V31.6923C20.1944 32.4747 20.8163 33.109 21.5833 33.109H25V50.109C25 50.8914 24.3782 51.5256 23.6111 51.5256H5.55556C2.48731 51.5256 0 48.9886 0 45.859V6.1923C0 3.06269 2.48731 0.525635 5.55556 0.525635H44.4444C47.5127 0.525635 50 3.06269 50 6.1923Z" fill="#191D23"/>
</svg>
