<svg width="552" height="591" viewBox="0 0 552 591" fill="none" xmlns="http://www.w3.org/2000/svg">
<path d="M313.586 258.567C309.515 252.302 303.733 246.039 296.238 242.07C290.24 239.148 286.385 234.346 282.958 228.706C272.037 210.75 278.462 187.154 296.665 176.506C318.083 164.603 324.936 138.085 312.513 117.414L298.165 92.7736C285.958 72.1022 259.187 64.7946 237.984 76.9043C219.136 86.927 194.936 80.2452 184.013 62.496C180.586 56.6494 178.658 50.3864 179.088 44.121C179.729 35.9781 177.16 28.2517 173.306 21.9886C165.381 9.04149 151.031 0.272705 135.183 0.272705H104.984C89.3499 0.689205 75.0019 9.04149 67.0768 21.9886C63.0085 28.2517 60.6517 35.9781 61.0812 44.121C61.5085 50.3864 59.5812 56.6494 56.1538 62.496C45.2332 80.2452 21.0305 86.927 2.39836 76.9043C-19.0179 64.7946 -45.5752 72.1022 -57.9959 92.7736L-72.3461 117.414C-84.5532 138.085 -77.7008 164.603 -56.4981 176.506C-38.2933 187.154 -31.8682 210.75 -42.5774 228.706C-46.2184 234.346 -50.073 239.148 -56.0686 242.07C-63.3505 246.039 -69.7757 252.302 -73.203 258.567C-81.1259 271.512 -80.6986 287.8 -72.7734 301.371L-57.9959 326.428C-50.073 339.791 -35.2955 348.144 -19.8748 348.144C-12.5928 348.144 -4.02676 346.057 2.82788 341.881C8.18028 338.33 14.6054 337.079 21.6737 337.079C42.8763 337.079 60.6517 354.409 61.0812 375.08C61.0812 399.093 80.7838 417.886 105.627 417.886H134.755C159.383 417.886 179.088 399.093 179.088 375.08C179.729 354.409 197.506 337.079 218.709 337.079C225.561 337.079 231.986 338.33 237.555 341.881C244.409 346.057 252.762 348.144 260.257 348.144C275.462 348.144 290.24 339.791 298.165 326.428L313.156 301.371C320.868 287.382 321.508 271.512 313.586 258.567Z" fill="url(#paint0_linear_0_1)"/>
<g opacity="0.5" filter="url(#filter0_f_0_1)">
<path d="M221.248 235.724C219.149 232.499 216.169 229.277 212.303 227.234C209.21 225.728 207.222 223.256 205.455 220.354C199.825 211.113 203.136 198.968 212.524 193.486C223.567 187.361 227.101 173.71 220.696 163.071L213.296 150.389C207.002 139.749 193.199 135.987 182.265 142.221C172.549 147.38 160.07 143.941 154.437 134.807C152.67 131.795 151.678 128.573 151.898 125.348C152.23 121.156 150.903 117.18 148.916 113.955C144.83 107.293 137.432 102.779 129.26 102.779H113.688C105.627 102.992 98.2292 107.293 94.1431 113.955C92.0445 117.18 90.8293 121.156 91.0496 125.348C91.2722 128.573 90.2774 131.795 88.5103 134.807C82.8775 143.941 70.3989 147.38 60.7935 142.221C49.7504 135.987 36.0567 139.749 29.6517 150.389L22.2518 163.071C15.958 173.71 19.4921 187.361 30.4239 193.486C39.8112 198.968 43.1228 211.113 37.6013 220.354C35.7252 223.256 33.7377 225.728 30.6442 227.234C26.8898 229.277 23.5782 232.499 21.8111 235.724C17.725 242.386 17.9454 250.77 22.0315 257.757L29.6517 270.653C33.7377 277.53 41.3557 281.831 49.3076 281.831C53.062 281.831 57.4797 280.755 61.0139 278.606C63.7735 276.78 67.0873 276.134 70.7305 276.134C81.6646 276.134 90.8293 285.054 91.0496 295.694C91.0496 308.053 101.209 317.726 114.019 317.726H129.039C141.738 317.726 151.898 308.053 151.898 295.694C152.23 285.054 161.394 276.134 172.326 276.134C175.86 276.134 179.174 276.78 182.045 278.606C185.579 280.755 189.886 281.831 193.751 281.831C201.592 281.831 209.21 277.53 213.296 270.653L221.027 257.757C225.002 250.556 225.334 242.386 221.248 235.724Z" fill="#18A563"/>
</g>
<path d="M515.103 365.753C510.169 358.229 503.161 350.707 494.074 345.941C486.803 342.431 482.132 336.662 477.977 329.891C464.737 308.327 472.524 279.989 494.592 267.198C520.556 252.906 528.863 221.058 513.805 196.23L496.411 166.639C481.611 141.814 449.158 133.036 423.456 147.58C400.608 159.618 371.271 151.594 358.032 130.276C353.877 123.256 351.54 115.732 352.06 108.209C352.839 98.4286 349.724 89.1497 345.05 81.626C335.445 66.0797 318.05 55.5469 298.837 55.5469H262.229C243.276 56.048 225.884 66.0797 216.276 81.626C211.345 89.1497 208.489 98.4286 209.008 108.209C209.526 115.732 207.189 123.256 203.037 130.276C189.795 151.594 160.458 159.618 137.871 147.58C111.908 133.036 79.7155 141.814 64.6575 166.639L47.2628 196.23C32.463 221.058 40.7709 252.906 66.4736 267.198C88.542 279.989 96.3313 308.327 83.3498 329.891C78.9365 336.662 74.2629 342.431 66.9943 345.941C58.1657 350.707 50.3785 358.229 46.2235 365.753C36.6181 381.301 37.1366 400.861 46.742 417.16L64.6575 447.253C74.2629 463.303 92.1762 473.334 110.871 473.334C119.697 473.334 130.081 470.826 138.389 465.81C144.881 461.547 152.668 460.044 161.237 460.044C186.939 460.044 208.489 480.858 209.008 505.683C209.008 534.522 232.892 557.093 263.008 557.093H298.318C328.174 557.093 352.06 534.522 352.06 505.683C352.839 480.858 374.387 460.044 400.09 460.044C408.398 460.044 416.187 461.547 422.937 465.81C431.245 470.826 441.369 473.334 450.456 473.334C468.89 473.334 486.803 463.303 496.411 447.253L514.584 417.16C523.929 400.36 524.708 381.301 515.103 365.753Z" fill="#1DBF73" fill-opacity="0.35"/>
<mask id="mask0_0_1" style="mask-type:luminance" maskUnits="userSpaceOnUse" x="17" y="33" width="535" height="558">
<path d="M551.145 33.2742H17.0176V590.092H551.145V33.2742Z" fill="white"/>
<path d="M515.103 365.753C510.169 358.229 503.161 350.707 494.074 345.941C486.803 342.431 482.132 336.662 477.977 329.891C464.737 308.327 472.524 279.989 494.592 267.198C520.556 252.906 528.863 221.058 513.805 196.23L496.411 166.639C481.611 141.814 449.158 133.036 423.456 147.58C400.608 159.618 371.271 151.594 358.032 130.276C353.877 123.256 351.54 115.732 352.06 108.209C352.839 98.4286 349.724 89.1497 345.05 81.626C335.445 66.0797 318.05 55.5469 298.837 55.5469H262.229C243.276 56.048 225.884 66.0797 216.276 81.626C211.345 89.1497 208.489 98.4286 209.008 108.209C209.526 115.732 207.189 123.256 203.037 130.276C189.795 151.594 160.458 159.618 137.871 147.58C111.908 133.036 79.7155 141.814 64.6575 166.639L47.2628 196.23C32.463 221.058 40.7709 252.906 66.4736 267.198C88.542 279.989 96.3313 308.327 83.3498 329.891C78.9365 336.662 74.2629 342.431 66.9943 345.941C58.1657 350.707 50.3785 358.229 46.2235 365.753C36.6181 381.301 37.1366 400.861 46.742 417.16L64.6575 447.253C74.2629 463.303 92.1762 473.334 110.871 473.334C119.697 473.334 130.081 470.826 138.389 465.81C144.881 461.547 152.668 460.044 161.237 460.044C186.939 460.044 208.489 480.858 209.008 505.683C209.008 534.522 232.892 557.093 263.008 557.093H298.318C328.174 557.093 352.06 534.522 352.06 505.683C352.839 480.858 374.387 460.044 400.09 460.044C408.398 460.044 416.187 461.547 422.937 465.81C431.245 470.826 441.369 473.334 450.456 473.334C468.89 473.334 486.803 463.303 496.411 447.253L514.584 417.16C523.929 400.36 524.708 381.301 515.103 365.753Z" fill="url(#paint1_linear_0_1)"/>
</mask>
<g mask="url(#mask0_0_1)">
<path d="M496.495 377.971C503.238 388.257 517.037 391.123 527.312 384.375C537.59 377.626 540.454 363.817 533.71 353.534L496.495 377.971ZM494.074 345.941L504.402 326.212C504.184 326.098 503.966 325.989 503.746 325.882L494.074 345.941ZM494.592 267.198L483.865 247.685C483.723 247.763 483.58 247.843 483.44 247.925L494.592 267.198ZM513.805 196.23L494.621 207.525L494.779 207.788L513.805 196.23ZM496.411 166.639L515.592 155.344L515.523 155.228L496.411 166.639ZM423.455 147.58L433.824 167.289C434.02 167.184 434.216 167.078 434.409 166.968L423.455 147.58ZM358.031 130.276L338.881 141.624C338.963 141.762 339.045 141.901 339.13 142.036L358.031 130.276ZM352.06 108.209L329.874 106.44L329.856 106.674L352.06 108.209ZM345.05 81.626L326.12 93.3415L326.148 93.386L345.05 81.626ZM262.229 55.5469V33.2742C262.033 33.2742 261.837 33.2764 261.641 33.2809L262.229 55.5469ZM216.276 81.626L234.884 93.8471C234.993 93.68 235.1 93.5108 235.207 93.3415L216.276 81.626ZM209.008 108.209L186.783 109.391C186.79 109.509 186.797 109.625 186.806 109.743L209.008 108.209ZM203.037 130.276L221.936 142.036C222.023 141.901 222.105 141.762 222.187 141.624L203.037 130.276ZM137.871 147.58L126.999 167.015C127.135 167.091 127.273 167.167 127.411 167.24L137.871 147.58ZM64.6574 166.639L45.6313 155.081L45.4755 155.347L64.6574 166.639ZM47.2626 196.23L66.3755 207.641L66.4445 207.525L47.2626 196.23ZM66.4734 267.198L77.6278 247.925C77.5143 247.859 77.3986 247.794 77.2851 247.729L66.4734 267.198ZM83.3496 329.891L101.988 342.061C102.135 341.838 102.276 341.613 102.414 341.384L83.3496 329.891ZM66.9942 345.941L57.322 325.882C57.0193 326.027 56.7233 326.181 56.4296 326.339L66.9942 345.941ZM46.2233 365.753L65.1537 377.466C65.3428 377.156 65.5275 376.842 65.7034 376.526L46.2233 365.753ZM46.7418 417.16L27.5733 428.477L27.6245 428.562L46.7418 417.16ZM64.6574 447.253L45.5378 458.654L45.5645 458.699L64.6574 447.253ZM138.389 465.811L149.884 484.883C150.127 484.738 150.365 484.586 150.601 484.433L138.389 465.811ZM209.008 505.683H231.263C231.263 505.529 231.261 505.374 231.258 505.218L209.008 505.683ZM352.06 505.683L329.816 504.986C329.807 505.218 329.805 505.451 329.805 505.683H352.06ZM422.937 465.811L411.059 484.647C411.186 484.727 411.313 484.805 411.442 484.883L422.937 465.811ZM496.411 447.253L477.362 435.733L477.318 435.809L496.411 447.253ZM514.584 417.16L533.63 428.682C533.766 428.455 533.9 428.225 534.029 427.996L514.584 417.16ZM534.031 354.039C527.568 343.578 513.852 340.339 503.399 346.81C492.943 353.278 489.709 367.004 496.172 377.466L534.031 354.039ZM533.71 353.534C527.345 343.83 517.749 333.212 504.402 326.212L483.745 365.67C488.57 368.2 492.994 372.63 496.495 377.971L533.71 353.534ZM503.746 325.882C502.128 325.1 500.227 323.595 496.942 318.238L459.01 341.547C464.034 349.732 471.48 359.761 484.402 366L503.746 325.882ZM496.942 318.238C490.58 307.875 493.967 293.299 505.744 286.473L483.44 247.925C451.083 266.677 438.892 308.777 459.01 341.547L496.942 318.238ZM505.319 286.713C542.354 266.323 554.47 220.354 532.829 184.673L494.779 207.788C503.254 221.759 498.754 239.486 483.865 247.685L505.319 286.713ZM532.987 184.936L515.592 155.344L477.229 177.933L494.621 207.525L532.987 184.936ZM515.523 155.228C494.505 119.971 448.686 107.716 412.501 128.192L434.409 166.968C449.63 158.356 468.716 163.654 477.298 178.049L515.523 155.228ZM413.089 127.871C400.426 134.544 383.923 129.773 376.931 118.519L339.13 142.036C358.619 173.412 400.793 184.691 433.824 167.289L413.089 127.871ZM377.182 118.931C374.632 114.621 374.135 111.572 374.262 109.743L329.856 106.674C328.944 119.893 333.121 131.891 338.881 141.624L377.182 118.931ZM374.244 109.979C375.489 94.3638 370.49 80.3943 363.951 69.8683L326.148 93.386C328.957 97.9052 330.188 102.493 329.874 106.44L374.244 109.979ZM363.978 69.9128C350.56 48.1947 326.211 33.2742 298.837 33.2742V77.8196C309.887 77.8196 320.326 83.9625 326.12 93.3415L363.978 69.9128ZM298.837 33.2742H262.229V77.8196H298.837V33.2742ZM261.641 33.2809C235.322 33.978 210.968 47.8673 197.348 69.9128L235.207 93.3415C240.797 84.2921 251.233 78.1181 262.819 77.8107L261.641 33.2809ZM197.671 69.4072C190.338 80.5904 185.993 94.5175 186.783 109.391L231.232 107.028C230.982 102.34 232.351 97.7092 234.884 93.8471L197.671 69.4072ZM186.806 109.743C186.93 111.572 186.434 114.621 183.886 118.931L222.187 141.624C227.945 131.891 232.122 119.893 231.21 106.674L186.806 109.743ZM184.135 118.519C177.1 129.844 160.613 134.468 148.331 127.922L127.411 167.24C160.302 184.769 202.491 173.341 221.936 142.036L184.135 118.519ZM148.742 128.145C112.302 107.73 66.8985 120.02 45.6313 155.081L83.6812 178.196C92.5322 163.605 111.516 158.34 126.999 167.015L148.742 128.145ZM45.4755 155.347L28.0807 184.936L66.4445 207.525L83.8392 177.933L45.4755 155.347ZM28.1498 184.82C6.94266 220.399 18.9405 266.245 55.664 286.669L77.2851 247.729C62.601 239.564 57.9852 221.715 66.3755 207.641L28.1498 184.82ZM55.3213 286.473C67.0988 293.299 70.5662 307.966 64.2857 318.398L102.414 341.384C122.094 308.688 109.985 266.677 77.6278 247.925L55.3213 286.473ZM64.7108 317.724C60.9252 323.528 58.9978 325.074 57.322 325.882L76.6663 366C89.5277 359.788 96.9476 349.799 101.988 342.061L64.7108 317.724ZM56.4296 326.339C44.3271 332.871 33.2128 343.266 26.7454 354.981L65.7034 376.526C67.5439 373.192 72.0061 368.541 77.5588 365.545L56.4296 326.339ZM27.2951 354.039C12.8937 377.348 14.2202 405.817 27.5733 428.477L65.9125 405.846C60.0549 395.905 60.3421 385.252 65.1537 377.466L27.2951 354.039ZM27.6245 428.562L45.5378 458.654L83.7769 435.854L65.8614 405.761L27.6245 428.562ZM45.5645 458.699C59.2426 481.553 84.4579 495.607 110.871 495.607V451.061C99.8965 451.061 89.2829 445.052 83.7502 435.809L45.5645 458.699ZM110.871 495.607C123.342 495.607 137.775 492.193 149.884 484.883L126.894 446.741C122.388 449.46 116.052 451.061 110.871 451.061V495.607ZM150.601 484.433C152.119 483.435 155.056 482.317 161.237 482.317V437.771C150.28 437.771 137.641 439.662 126.178 447.191L150.601 484.433ZM161.237 482.317C175.291 482.317 186.501 493.896 186.757 506.151L231.258 505.218C230.475 467.82 198.59 437.771 161.237 437.771V482.317ZM186.752 505.683C186.752 547.906 221.711 579.366 263.008 579.366V534.82C244.073 534.82 231.263 521.138 231.263 505.683H186.752ZM263.008 579.366H298.318V534.82H263.008V579.366ZM298.318 579.366C339.426 579.366 374.316 547.839 374.316 505.683H329.805C329.805 521.207 316.921 534.82 298.318 534.82V579.366ZM374.305 506.383C374.696 493.894 386.089 482.317 400.09 482.317V437.771C362.685 437.771 330.98 467.819 329.816 504.986L374.305 506.383ZM400.09 482.317C405.82 482.317 409.027 483.364 411.059 484.647L434.815 446.974C423.346 439.734 410.975 437.771 400.09 437.771V482.317ZM411.442 484.883C423.507 492.166 437.67 495.607 450.456 495.607V451.061C445.07 451.061 438.981 449.487 434.432 446.741L411.442 484.883ZM450.456 495.607C476.668 495.607 501.854 481.504 515.501 458.699L477.318 435.809C471.754 445.104 461.111 451.061 450.456 451.061V495.607ZM515.457 458.775L533.63 428.682L495.536 405.641L477.362 435.733L515.457 458.775ZM534.029 427.996C546.583 405.427 548.601 377.622 534.031 354.039L496.172 377.466C500.815 384.981 501.278 395.293 495.138 406.327L534.029 427.996Z" fill="url(#paint2_linear_0_1)"/>
</g>
<g filter="url(#filter1_d_0_1)">
<path d="M280.986 375.334C240.225 375.334 207.254 343.988 207.254 304.616C207.254 265.245 240.225 233.646 280.986 233.646C321.746 233.646 353.941 265.245 353.941 304.616C353.941 343.988 321.746 375.334 280.986 375.334Z" fill="url(#paint3_linear_0_1)"/>
<path d="M280.986 370.88C242.491 370.88 211.705 341.339 211.705 304.616C211.705 267.873 242.513 238.101 280.986 238.101C319.396 238.101 349.49 267.81 349.49 304.616C349.49 341.4 319.419 370.88 280.986 370.88Z" stroke="url(#paint4_linear_0_1)"/>
</g>
<defs>
<filter id="filter0_f_0_1" x="2.85449" y="86.7786" width="237.31" height="246.947" filterUnits="userSpaceOnUse" color-interpolation-filters="sRGB">
<feFlood flood-opacity="0" result="BackgroundImageFix"/>
<feBlend mode="normal" in="SourceGraphic" in2="BackgroundImageFix" result="shape"/>
<feGaussianBlur stdDeviation="8" result="effect1_foregroundBlur_0_1"/>
</filter>
<filter id="filter1_d_0_1" x="202.254" y="228.646" width="166.688" height="161.688" filterUnits="userSpaceOnUse" color-interpolation-filters="sRGB">
<feFlood flood-opacity="0" result="BackgroundImageFix"/>
<feColorMatrix in="SourceAlpha" type="matrix" values="0 0 0 0 0 0 0 0 0 0 0 0 0 0 0 0 0 0 127 0" result="hardAlpha"/>
<feOffset dx="5" dy="5"/>
<feGaussianBlur stdDeviation="5"/>
<feColorMatrix type="matrix" values="0 0 0 0 0.113725 0 0 0 0 0.74902 0 0 0 0 0.45098 0 0 0 0.5 0"/>
<feBlend mode="normal" in2="BackgroundImageFix" result="effect1_dropShadow_0_1"/>
<feBlend mode="normal" in="SourceGraphic" in2="effect1_dropShadow_0_1" result="shape"/>
</filter>
<linearGradient id="paint0_linear_0_1" x1="221" y1="191" x2="-206.625" y2="402.069" gradientUnits="userSpaceOnUse">
<stop stop-color="#1DBF73"/>
<stop offset="0.627669" stop-color="#82EDBB"/>
</linearGradient>
<linearGradient id="paint1_linear_0_1" x1="116.11" y1="113.977" x2="438.409" y2="498.143" gradientUnits="userSpaceOnUse">
<stop stop-color="white" stop-opacity="0.25"/>
<stop offset="1" stop-color="white" stop-opacity="0"/>
</linearGradient>
<linearGradient id="paint2_linear_0_1" x1="116.109" y1="113.977" x2="438.409" y2="498.143" gradientUnits="userSpaceOnUse">
<stop stop-color="white" stop-opacity="0.25"/>
<stop offset="1" stop-color="white" stop-opacity="0"/>
</linearGradient>
<linearGradient id="paint3_linear_0_1" x1="343.541" y1="259.233" x2="180.158" y2="264.748" gradientUnits="userSpaceOnUse">
<stop stop-color="white"/>
<stop offset="1" stop-color="white" stop-opacity="0.2"/>
</linearGradient>
<linearGradient id="paint4_linear_0_1" x1="230.604" y1="250.153" x2="320.276" y2="365.134" gradientUnits="userSpaceOnUse">
<stop stop-color="white" stop-opacity="0.25"/>
<stop offset="1" stop-color="white" stop-opacity="0"/>
</linearGradient>
</defs>
</svg>
