<svg width="51" height="52" viewBox="0 0 51 52" fill="none" xmlns="http://www.w3.org/2000/svg">
<path fill-rule="evenodd" clip-rule="evenodd" d="M36.4 0.825684H14C6.26801 0.825684 0 7.0937 0 14.8257V37.2257C0 44.9577 6.26801 51.2257 14 51.2257H36.4C44.132 51.2257 50.4 44.9577 50.4 37.2257V14.8257C50.4 7.0937 44.132 0.825684 36.4 0.825684ZM45.5 37.2257C45.4846 42.2451 41.4194 46.3103 36.4 46.3257H14C8.98059 46.3103 4.91537 42.2451 4.9 37.2257V14.8257C4.91537 9.80627 8.98059 5.74106 14 5.72568H36.4C41.4194 5.74106 45.4846 9.80627 45.5 14.8257V37.2257ZM38.5 15.5257C40.0464 15.5257 41.3 14.2721 41.3 12.7257C41.3 11.1793 40.0464 9.92568 38.5 9.92568C36.9536 9.92568 35.7 11.1793 35.7 12.7257C35.7 14.2721 36.9536 15.5257 38.5 15.5257ZM25.2 13.4257C18.2412 13.4257 12.6 19.0669 12.6 26.0257C12.6 32.9845 18.2412 38.6257 25.2 38.6257C32.1588 38.6257 37.8 32.9845 37.8 26.0257C37.8075 22.6817 36.4824 19.4725 34.1178 17.1079C31.7532 14.7434 28.544 13.4183 25.2 13.4257ZM17.5 26.0257C17.5 30.2783 20.9474 33.7257 25.2 33.7257C29.4526 33.7257 32.9 30.2783 32.9 26.0257C32.9 21.7731 29.4526 18.3257 25.2 18.3257C20.9474 18.3257 17.5 21.7731 17.5 26.0257Z" fill="#191D23"/>
</svg>
