<svg width="51" height="52" viewBox="0 0 51 52" fill="none" xmlns="http://www.w3.org/2000/svg">
<path fill-rule="evenodd" clip-rule="evenodd" d="M6.00039 0.825684H45.2004C48.2932 0.825684 50.8004 3.33289 50.8004 6.42568V45.6257C50.8004 48.7185 48.2932 51.2257 45.2004 51.2257H6.00039C2.9076 51.2257 0.400391 48.7185 0.400391 45.6257V6.42568C0.400391 3.33289 2.9076 0.825684 6.00039 0.825684ZM14.4004 42.8257C15.1736 42.8257 15.8004 42.1989 15.8004 41.4257V21.8257C15.8004 21.0525 15.1736 20.4257 14.4004 20.4257H10.2004C9.42719 20.4257 8.80039 21.0525 8.80039 21.8257V41.4257C8.80039 42.1989 9.42719 42.8257 10.2004 42.8257H14.4004ZM12.3004 17.6257C9.98079 17.6257 8.10039 15.7453 8.10039 13.4257C8.10039 11.1061 9.98079 9.22568 12.3004 9.22568C14.62 9.22568 16.5004 11.1061 16.5004 13.4257C16.5004 15.7453 14.62 17.6257 12.3004 17.6257ZM41.0004 42.8258C41.7736 42.8258 42.4004 42.199 42.4004 41.4258V28.5458C42.4913 24.096 39.2017 20.2984 34.7844 19.7538C31.6961 19.4717 28.7035 20.9141 27.0004 23.5058V21.8258C27.0004 21.0526 26.3736 20.4258 25.6004 20.4258H21.4004C20.6272 20.4258 20.0004 21.0526 20.0004 21.8258V41.4258C20.0004 42.199 20.6272 42.8258 21.4004 42.8258H25.6004C26.3736 42.8258 27.0004 42.199 27.0004 41.4258V30.9258C27.0004 28.6062 28.8808 26.7258 31.2004 26.7258C33.52 26.7258 35.4004 28.6062 35.4004 30.9258V41.4258C35.4004 42.199 36.0272 42.8258 36.8004 42.8258H41.0004Z" fill="#191D23"/>
</svg>
