<svg width="62" height="61" viewBox="0 0 62 61" fill="none" xmlns="http://www.w3.org/2000/svg">
<g clip-path="url(#clip0_427_1666)">
<path d="M31 0C13.8185 0 0.5 12.5855 0.5 29.585C0.5 38.4769 4.14404 46.1603 10.0789 51.4676C10.5769 51.9134 10.8776 52.5382 10.8981 53.2065L11.0642 58.6322C11.1173 60.3626 12.9047 61.4887 14.4883 60.7896L20.5421 58.1168C21.0552 57.8906 21.6306 57.8484 22.1712 57.9974C24.9531 58.7623 27.9138 59.1698 31 59.1698C48.1815 59.1698 61.5 46.5842 61.5 29.5848C61.5 12.5853 48.1815 0 31 0Z" fill="url(#paint0_linear_427_1666)"/>
<path d="M12.6848 38.237L21.6441 24.0228C23.0691 21.7615 26.121 21.1985 28.2593 22.8021L35.3851 28.1468C35.7033 28.3854 36.0907 28.5139 36.4885 28.5128C36.8863 28.5116 37.2728 28.3809 37.5897 28.1403L47.2134 20.8365C48.4977 19.8617 50.1747 21.3989 49.315 22.763L40.3556 36.9775C38.9305 39.2385 35.8783 39.8016 33.7402 38.1979L26.6142 32.8533C26.296 32.6147 25.9088 32.4863 25.5111 32.4875C25.1134 32.4886 24.7269 32.6193 24.4101 32.8597L14.7859 40.1635C13.5016 41.1381 11.8248 39.6012 12.6848 38.237Z" fill="white"/>
</g>
<defs>
<linearGradient id="paint0_linear_427_1666" x1="-5471.99" y1="6067.36" x2="7821.13" y2="6067.36" gradientUnits="userSpaceOnUse">
<stop offset="0.369792" stop-color="#278BB6"/>
<stop offset="0.4375" stop-color="#A033FF"/>
<stop offset="0.567708" stop-color="#FF5280"/>
<stop offset="0.786458" stop-color="#FF7061"/>
</linearGradient>
<clipPath id="clip0_427_1666">
<rect width="61" height="61" fill="white" transform="translate(0.5)"/>
</clipPath>
</defs>
</svg>
