<svg width="62" height="61" viewBox="0 0 62 61" fill="none" xmlns="http://www.w3.org/2000/svg">
<path d="M31 3.8125C16.2623 3.8125 4.3125 15.7623 4.3125 30.5C4.3125 45.2377 16.2623 57.1875 31 57.1875C45.7377 57.1875 57.6875 45.2377 57.6875 30.5C57.6875 15.7623 45.7377 3.8125 31 3.8125ZM43.8255 23.9294C43.8434 24.2094 43.8434 24.5013 43.8434 24.7872C43.8434 33.5321 37.1834 43.6055 25.0132 43.6055C21.2603 43.6055 17.7813 42.5153 14.8505 40.6389C15.3866 40.6984 15.8989 40.7223 16.447 40.7223C19.5446 40.7223 22.3921 39.6738 24.6617 37.8986C21.7547 37.8391 19.3123 35.9328 18.4783 33.3117C19.497 33.4606 20.4144 33.4606 21.4628 33.1926C19.9659 32.8885 18.6205 32.0755 17.6552 30.8919C16.6898 29.7082 16.1639 28.2268 16.167 26.6994V26.616C17.0427 27.1104 18.0732 27.4143 19.1515 27.456C18.2451 26.8519 17.5017 26.0335 16.9873 25.0733C16.473 24.1132 16.2035 23.0409 16.2027 21.9517C16.2027 20.7186 16.5244 19.5927 17.1022 18.6157C18.7637 20.661 20.8369 22.3338 23.1871 23.5253C25.5374 24.7168 28.1121 25.4005 30.7438 25.5318C29.8086 21.0343 33.1684 17.3945 37.2072 17.3945C39.1135 17.3945 40.8291 18.1928 42.0384 19.4795C43.5336 19.1995 44.9633 18.6396 46.2381 17.889C45.7437 19.4199 44.7071 20.7126 43.3311 21.5287C44.6654 21.3857 45.9521 21.0164 47.1436 20.4981C46.244 21.8206 45.1182 22.9941 43.8255 23.9294Z" fill="#699BF7"/>
</svg>
