<svg width="50" height="43" viewBox="0 0 50 43" fill="none" xmlns="http://www.w3.org/2000/svg">
<path d="M49.7281 6.11263C48.4638 7.81325 46.9356 9.29672 45.2025 10.5058C45.2025 10.95 45.2025 11.3942 45.2025 11.8632C45.2163 19.9307 42.0207 27.6664 36.3319 33.336C30.6432 39.0057 22.9372 42.1351 14.9415 42.0227C10.319 42.0383 5.75569 40.9739 1.60904 38.913C1.38546 38.8145 1.24125 38.5914 1.2421 38.3453V38.0738C1.2421 37.7194 1.52686 37.4321 1.87814 37.4321C6.42194 37.2811 10.8036 35.6925 14.4033 32.8909C10.2905 32.8074 6.59008 30.3505 4.88711 26.5727C4.80109 26.3664 4.82788 26.1297 4.95779 25.9483C5.08769 25.7668 5.30195 25.6667 5.52315 25.6842C6.77312 25.8109 8.03557 25.6936 9.24156 25.3387C4.7014 24.3883 1.28999 20.5875 0.801758 15.9355C0.784405 15.7123 0.883581 15.4961 1.06346 15.3651C1.24333 15.234 1.4779 15.207 1.68243 15.2938C2.90081 15.8359 4.21605 16.1214 5.54762 16.1329C1.56937 13.4998 -0.148976 8.49165 1.36441 3.94075C1.52063 3.49853 1.89594 3.17185 2.35243 3.08075C2.80891 2.98966 3.27923 3.14758 3.59056 3.4965C8.95897 9.2581 16.3352 12.6914 24.1641 13.0725C23.9636 12.2656 23.8649 11.4363 23.8705 10.6045C23.9438 6.24252 26.6202 2.3568 30.6468 0.766467C34.6734 -0.823867 39.2533 0.195925 42.2424 3.34842C44.2799 2.957 46.2497 2.26686 48.0891 1.29994C48.2238 1.21511 48.3947 1.21511 48.5294 1.29994C48.6135 1.43587 48.6135 1.60825 48.5294 1.74419C47.6385 3.80156 46.1334 5.52713 44.2239 6.68028C45.896 6.48475 47.5387 6.087 49.1166 5.49562C49.2494 5.40442 49.424 5.40442 49.5569 5.49562C49.6682 5.54697 49.7514 5.64516 49.7844 5.76404C49.8174 5.88293 49.7968 6.01044 49.7281 6.11263Z" fill="#191D23"/>
</svg>
