<svg width="25" height="25" viewBox="0 0 25 25" fill="none" xmlns="http://www.w3.org/2000/svg">
<path d="M12.5432 12.0314V21.0314M12.5432 12.0314L10.0432 14.0314M12.5432 12.0314L15.0432 14.0314M5.57717 9.14844C4.63139 9.38643 3.80505 9.9616 3.25343 10.7659C2.7018 11.5702 2.46286 12.5482 2.58148 13.5162C2.70011 14.4843 3.16814 15.3757 3.89764 16.0229C4.62714 16.6702 5.5679 17.0289 6.54317 17.0314H7.54317" stroke="#191D23" stroke-width="2" stroke-linecap="round" stroke-linejoin="round"/>
<path d="M16.3736 7.16946C16.0318 5.81603 15.1882 4.6432 14.0137 3.88871C12.8393 3.13423 11.4219 2.85455 10.0489 3.10636C8.67585 3.35817 7.44995 4.12264 6.61968 5.24479C5.7894 6.36695 5.41688 7.76282 5.57762 9.14946C5.57762 9.14946 5.73062 10.0315 6.04362 10.5315" stroke="#191D23" stroke-width="2" stroke-linecap="round" stroke-linejoin="round"/>
<path d="M17.543 17.0315C18.249 17.031 18.9469 16.881 19.5908 16.5914C20.2347 16.3017 20.81 15.879 21.2787 15.351C21.7474 14.823 22.099 14.2017 22.3104 13.528C22.5217 12.8544 22.5879 12.1436 22.5047 11.4424C22.4216 10.7413 22.1908 10.0658 21.8278 9.46023C21.4647 8.85471 20.9775 8.33294 20.3982 7.92928C19.8189 7.52562 19.1608 7.24921 18.467 7.11825C17.7732 6.9873 17.0595 7.00476 16.373 7.16949L15.043 7.53149" stroke="#191D23" stroke-width="2" stroke-linecap="round" stroke-linejoin="round"/>
</svg>
