<svg width="62" height="61" viewBox="0 0 62 61" fill="none" xmlns="http://www.w3.org/2000/svg">
<g clip-path="url(#clip0_427_1662)">
<path d="M1.80884 30.1348C1.80741 35.26 3.1567 40.2644 5.72233 44.6753L1.56348 59.7461L17.1031 55.7021C21.4011 58.0244 26.2168 59.2412 31.1105 59.2415H31.1233C47.2783 59.2415 60.4288 46.1944 60.4357 30.1578C60.4388 22.3869 57.3924 15.0797 51.8576 9.58209C46.3237 4.08499 38.9639 1.05604 31.1222 1.05249C14.9653 1.05249 1.81575 14.0989 1.80908 30.1348" fill="url(#paint0_linear_427_1662)"/>
<path d="M0.762709 30.1255C0.761041 35.4351 2.15868 40.6184 4.8158 45.1873L0.507812 60.7983L16.6046 56.6094C21.0398 59.0095 26.0334 60.2749 31.1147 60.2767H31.1278C47.8623 60.2767 61.4852 46.7603 61.4923 30.1496C61.4952 22.0995 58.3392 14.5296 52.6067 8.83507C46.8734 3.14126 39.2504 0.00331008 31.1278 0C14.3904 0 0.769379 13.5146 0.762709 30.1255ZM10.3487 44.4004L9.74768 43.4535C7.22111 39.4663 5.88755 34.8587 5.88946 30.1274C5.89494 16.3208 17.2161 5.08806 31.1373 5.08806C37.8789 5.0909 44.2147 7.69924 48.98 12.4317C53.7452 17.1646 56.3672 23.4562 56.3656 30.1477C56.3594 43.9543 45.0379 55.1884 31.1278 55.1884H31.1178C26.5885 55.1861 22.1464 53.9789 18.2724 51.6975L17.3505 51.1549L7.79832 53.6405L10.3487 44.4002V44.4004Z" fill="url(#paint1_linear_427_1662)"/>
<path d="M23.5381 17.531C22.9697 16.2772 22.3715 16.2519 21.831 16.2299C21.3884 16.211 20.8824 16.2124 20.3769 16.2124C19.8709 16.2124 19.0488 16.4013 18.3539 17.1544C17.6583 17.9081 15.6982 19.7296 15.6982 23.4343C15.6982 27.1392 18.4171 30.7196 18.7961 31.2224C19.1756 31.7244 24.0448 39.5702 31.7565 42.5885C38.1656 45.0969 39.4698 44.598 40.8608 44.4722C42.252 44.3469 45.3498 42.6512 45.9818 40.8928C46.6143 39.1347 46.6143 37.6277 46.4247 37.3128C46.2351 36.999 45.7291 36.8106 44.9703 36.4342C44.2114 36.0575 40.4813 34.2358 39.7859 33.9845C39.0903 33.7334 38.5846 33.6081 38.0786 34.3621C37.5726 35.1149 36.1197 36.8106 35.6769 37.3128C35.2345 37.8161 34.7916 37.8788 34.0331 37.5021C33.2739 37.1243 30.8305 36.3301 27.9316 33.7651C25.6761 31.7691 24.1534 29.3043 23.7108 28.5503C23.2682 27.7975 23.6634 27.3894 24.0438 27.0142C24.3847 26.6768 24.8028 26.1349 25.1825 25.6953C25.5608 25.2556 25.6871 24.9418 25.9401 24.4396C26.1933 23.937 26.0666 23.4972 25.8772 23.1206C25.6871 22.7439 24.2127 19.0198 23.5381 17.531Z" fill="white"/>
</g>
<defs>
<linearGradient id="paint0_linear_427_1662" x1="2945.17" y1="5870.41" x2="2945.17" y2="1.05249" gradientUnits="userSpaceOnUse">
<stop stop-color="#1FAF38"/>
<stop offset="1" stop-color="#60D669"/>
</linearGradient>
<linearGradient id="paint1_linear_427_1662" x1="3049.73" y1="6079.83" x2="3049.73" y2="0" gradientUnits="userSpaceOnUse">
<stop stop-color="#F9F9F9"/>
<stop offset="1" stop-color="white"/>
</linearGradient>
<clipPath id="clip0_427_1662">
<rect width="61" height="61" fill="white" transform="translate(0.5)"/>
</clipPath>
</defs>
</svg>
